<svg width="400" height="376" viewBox="0 0 400 376" fill="none" xmlns="http://www.w3.org/2000/svg">
<path fill-rule="evenodd" clip-rule="evenodd" d="M192.508 23.1895C194.268 27.8496 196.028 32.5104 197.789 37.1707C198.918 40.1572 200.046 43.143 201.174 46.1295C201.574 47.1883 201.797 48.2744 202.571 49.0095C204.395 50.7403 207.668 51.8418 209.861 53.0593C211.329 53.8752 212.798 54.6911 214.267 55.507C215.024 55.928 216.703 56.4566 217.234 57.1552C217.817 57.925 217.541 59.3389 217.541 60.4034V69.5943V86.912C209.956 85.9636 202.369 85.0157 194.783 84.0673C204.89 95.7291 214.997 107.39 225.103 119.052C227.594 121.926 230.618 124.692 232.474 128.036C236.424 135.154 240.285 142.322 244.189 149.465C247.823 156.113 251.458 162.762 255.092 169.41L222.395 168.019C213.93 167.658 205.233 168.2 197.077 165.801C190.353 163.823 183.63 161.846 176.906 159.868C176.011 159.605 173.226 159.307 172.592 158.588C171.998 157.913 172.011 155.366 171.843 154.504C168.67 138.192 164.629 120.216 155.367 106.175C148.726 96.1097 139.765 87.2972 131.558 78.52C128.355 75.0943 125.096 71.7096 122.007 68.1798C121.215 67.2758 120.072 66.2499 119.549 65.1519C119.211 64.4424 118.739 63.0905 118.949 62.4607C119.04 62.1876 121.151 61.2079 121.454 61.0133C123.594 59.6381 125.715 58.234 127.84 56.8366C133.813 52.9097 139.78 48.9731 145.787 45.0985C150.47 42.0774 155.14 38.8742 160.08 36.2781C165.2 33.5869 170.839 31.6929 176.207 29.5667C181.631 27.4177 187.066 25.2934 192.508 23.1895Z" fill="#241722"/>
<path fill-rule="evenodd" clip-rule="evenodd" d="M8.39828 272.154C11.003 274.609 15.7463 277.903 19.4957 276.405C21.3789 275.653 22.9874 274.001 24.7028 272.936C26.718 271.684 28.6126 270.432 30.3212 268.764C33.7298 265.434 36.3105 260.57 40.3365 257.964C41.6894 257.088 44.3305 256.9 45.2693 255.501C45.6898 254.873 45.729 253.921 45.6516 253.196C45.4832 251.634 44.6395 251.726 46.0493 250.579H43.8594C43.8173 249.733 44.6617 249.663 45.2909 249.772C44.9985 248.431 44.7003 243.184 47.1446 245.562C49.2633 247.623 48.2034 251.043 49.7037 253.276C50.8524 254.985 53.9009 253.601 54.3123 251.72C54.4972 250.875 53.5663 249.556 53.4554 248.727C53.2119 246.89 54.0323 245.302 55.2237 243.911C57.8375 245.652 56.3559 249.257 57.8455 251.545C59.1933 253.615 62.1951 252.649 64.2473 252.285C66.7075 251.848 69.4891 252.29 71.8428 251.709C75.3971 250.832 74.0697 246.659 74.4213 243.966C74.7986 241.081 77.7144 237.076 76.8382 234.166C75.8972 231.04 70.396 230.365 67.7663 229.607C61.7564 227.873 53.184 227.54 48.716 222.687C45.1623 226.65 42.3039 231.188 38.5767 235.003C34.5508 239.124 30.2506 242.929 26.3857 247.216C22.3633 251.678 18.211 256.053 14.3347 260.644C12.6432 262.647 11.1583 264.805 9.40875 266.76C7.85324 268.497 6.2135 270.096 8.39828 272.154ZM187.029 195.076C185.182 194.094 184.947 194.71 184.947 196.733C185.479 195.761 186.006 195.501 187.029 195.076ZM202.686 234.394V230.829C200.906 230.783 202.001 233.832 202.686 234.394ZM203.121 239.704C203.121 238.125 203.164 236.622 202.709 235.086C202.47 236.76 202.014 238.208 203.121 239.704ZM195.467 348.159C193.832 348.312 191.312 347.185 189.936 348.468C188.524 349.787 188.637 353.624 188.302 355.405C187.749 358.348 187.26 361.301 186.794 364.258C186.488 366.197 186.11 368.166 188.302 368.908C191.542 370.004 196.171 368.44 199.548 368.298C206.218 368.017 212.886 367.627 219.562 367.491C226.033 367.361 232.518 367.464 238.959 368.137C241.869 368.441 244.714 368.978 247.594 369.464C249.112 369.721 253.18 370.793 254.551 369.513C257.13 367.104 252.842 361.48 250.997 359.892C247.574 356.944 242.705 354.819 238.412 353.538C236.118 352.854 232.294 350.933 230.487 353.082C229.1 354.73 229.156 356.93 227.169 358.179C222.565 361.072 225.259 352.772 228.135 351.75C226.204 347.229 222.522 353.612 220.995 355.146C220.452 355.691 218.685 357.49 217.917 356.586C217.342 355.909 218.49 353.483 218.703 352.823C219.026 351.82 219.844 350.295 219.609 349.208C219.183 347.241 216.424 346.705 214.771 346.541C212.208 346.287 209.693 347.1 207.159 347.371C203.273 347.787 199.357 347.794 195.467 348.159ZM221.202 162.845C226.261 163.247 231.353 162.474 236.401 163.107C241.176 163.707 245.677 165.46 250.179 167.071C243.486 151.373 234.826 137.082 224.272 123.695C219.016 117.028 213.363 110.406 207.683 104.096C205.04 101.16 202.307 98.3218 199.579 95.4686C197.145 92.923 195.401 88.6001 192.48 86.6993C189.987 85.0766 185.63 86.2339 182.867 86.3346C179.744 86.4484 175.943 86.7323 172.897 85.6928C170.691 84.9395 170.083 82.9294 172.846 82.8628C176.105 82.7837 179.31 83.1234 182.611 82.8179C191.164 82.0276 199.408 80.7287 208.031 81.4655C210.006 81.6339 212.606 82.4754 214.545 82.2227C215.939 82.0401 215.022 82.7411 215.991 81.6225C216.362 81.1946 216.809 80.1887 216.919 79.6204C217.536 76.428 215.783 71.8661 215.364 68.6521C214.976 65.6776 215.32 62.4084 214.594 59.5118C213.933 56.8759 211.917 56.5243 209.436 56.2426C202.646 55.4717 195.718 55.0615 188.898 54.4806C173.333 53.1549 157.275 51.1551 141.816 54.4311C136.234 55.6139 129.428 57.4431 124.441 60.3721C122.882 61.2875 121.309 62.3657 121.876 64.2626C122.464 66.2318 125.349 68.3118 126.778 69.609C137.337 79.1948 147.535 88.9722 154.953 101.272C164.412 116.956 169.84 133.896 173.025 151.868C173.71 155.735 174.347 157.759 178.325 158.872C182.595 160.067 186.717 160.844 191.146 161.207C201.156 162.029 211.197 162.046 221.202 162.845ZM217.811 58.9765C218.578 64.6859 219.617 70.3828 219.719 76.1372C219.758 78.3106 219.964 79.3996 222.275 79.8844C224.999 80.4556 227.77 80.8812 230.507 81.474C243.717 84.337 256.678 87.8531 269.602 91.8107C282.163 95.658 294.517 99.986 307.36 102.836C312.885 104.062 319.349 104.888 324.381 107.603C329.794 110.524 329.082 115.313 329.568 120.572C330.217 127.6 332.301 134.405 333.034 141.43C333.384 144.787 333.704 148.163 333.651 151.541C333.606 154.421 333.193 157.605 335.129 160.028C339.012 154.837 340.852 148.307 341.618 141.945C341.99 138.852 341.842 135.734 341.949 132.627C342.035 130.125 341.979 126.146 343.609 124.057C347.151 119.517 351.758 137.712 352.196 139.655C352.933 142.925 353.54 146.223 354.274 149.494C354.6 150.943 355.017 156.213 356.96 156.739C360.985 157.828 360.101 146.516 360.165 144.794C360.292 141.318 360.379 137.837 360.298 134.358C360.238 131.847 359.753 129.122 360.041 126.609C360.749 120.44 364.218 126.94 365.193 129.236C367.658 135.033 368.772 141.238 370.982 147.128C371.35 148.108 372.213 151.406 373.582 151.467C375.104 151.535 375.092 148.129 375.179 147.133C375.684 141.365 377.391 135.637 376.876 129.808C376.356 123.923 374.293 117.873 371.373 112.754C365.201 101.931 354.056 95.7172 343.38 90.0567C331.162 83.5797 318.263 78.4625 305.089 74.2938C289.245 69.2802 272.976 65.2236 256.61 62.3367C248.283 60.8682 239.828 59.8179 231.416 58.9759C228.46 58.68 225.502 58.5071 222.584 57.9444C221.483 57.7316 217.509 56.7206 217.811 58.9765ZM209.3 40.4997C213.475 40.5327 217.739 38.5089 221.806 37.6726C226.648 36.6758 231.376 35.2335 236.209 34.1928C245.674 32.1554 255.144 30.1686 264.6 28.0863C268.705 27.1822 272.83 26.3953 276.919 25.4243C281.293 24.3854 286.02 23.227 290.497 24.3461C297.284 26.0428 300.151 33.468 302.643 39.2628C304.404 43.3558 305.783 47.9183 308.528 51.4799C309.505 52.7498 310.895 54.2644 312.667 53.853C315.96 53.0895 315.437 48.7324 315.017 46.3241C314.41 42.829 313.549 39.3749 312.86 35.8957C312.582 34.4915 310.431 25.3014 314.272 26.7242C317.122 27.7796 318.63 34.7311 319.708 37.214C320.51 39.0591 321.36 40.8923 322.259 42.6919C323.46 45.0923 326.885 53.1128 330.677 52.0785C336.103 50.598 330.898 36.3315 329.974 33.3246C329.466 31.6741 323.95 19.1567 328.606 20.1797C330.589 20.6161 332.52 24.2989 333.531 25.8254C335.324 28.5329 337.111 31.2599 338.799 34.0341C340.534 36.8874 341.421 40.135 343.143 42.9468C344.048 44.4266 345.897 46.3986 347.702 45.0286C350.515 42.8944 348.847 35.4707 348.355 32.6635C347.438 27.4445 345.161 22.0942 342.037 17.8276C337.343 11.4167 328.485 9.34511 321.036 8.09968C311.421 6.49181 301.673 6.93162 292.018 7.88291C281.159 8.95311 270.466 10.099 259.763 12.2872C248.976 14.4924 238.184 16.6801 227.563 19.5965C222.56 20.9705 217.485 22.1887 212.552 23.8017C207.309 25.5159 202.192 27.6493 196.802 28.8845C198.698 33.6154 200.594 38.3462 202.49 43.0776C204.304 41.2826 206.781 40.4792 209.3 40.4997ZM116.377 53.5361C114.715 52.6269 112.878 52.1979 112.272 50.1884C111.735 48.4127 112.652 46.4009 113.09 44.6963C114.315 39.9239 114.638 34.9803 113.553 30.1516C112.517 31.7338 108.636 37.8199 106.276 34.1354C104.853 31.913 108.667 28.7161 109.781 27.1538C107.338 25.6462 103.848 21.5998 101.033 24.04C99.2135 25.6178 98.4431 27.1367 95.9915 27.9036C93.0153 28.835 90.2132 28.6217 87.1739 28.3645C85.046 28.1847 84.5333 27.9008 83.7021 29.5394C83.0495 30.8275 82.7127 32.4217 82.3309 33.8048C81.5799 36.5318 79.8412 41.905 81.9008 44.4596C83.7044 46.6973 90.7059 44.7788 91.6783 47.6674C92.2085 49.2428 89.6778 49.2991 88.7106 50.0786C87.5129 51.0435 86.5224 52.5791 85.8715 53.9509C85.3896 54.9653 84.6568 56.6415 85.4772 57.6787C86.6106 59.1136 88.7117 58.0252 89.6249 56.9823C90.8379 55.5969 91.2316 53.7028 92.2438 52.194C94.1014 49.4254 94.2124 51.6278 94.7182 53.6158C95.2433 55.6811 96.4859 55.5388 98.389 55.804C101.728 56.2699 105.103 56.9271 108.353 57.822C110.02 58.2806 111.634 58.8649 113.221 59.5477C114.243 59.9869 116.015 61.3177 117.125 61.3302C119.18 61.3535 120.606 57.9154 121.667 56.481C119.905 55.4973 118.148 54.5045 116.377 53.5361ZM5.98364 264.062C11.1179 257.899 15.5642 251.204 20.6302 244.987C25.6262 238.855 31.4062 233.494 37.0126 227.94C39.6588 225.319 42.1941 222.444 45.1151 220.121C47.2942 218.388 48.9709 218.361 51.5921 219.129C59.0403 221.31 66.6233 223.936 73.6714 227.191C80.2343 230.222 86.2123 234.115 93.3299 235.805C100.595 237.531 108.149 238.085 115.595 237.657C123.232 237.218 130.436 235.629 137.699 233.294C144.578 231.081 151.75 229.15 157.633 224.765C163.8 220.169 168.565 213.559 172.981 207.341C175.216 204.194 177.435 200.888 178.941 197.321C180.248 194.225 181.102 190.571 183.447 188.048C184.022 188.863 184.738 189.563 185.03 190.52C185.164 190.955 184.38 190.942 184.46 191.288C184.612 191.939 185.479 192.604 185.983 192.958C187.794 194.233 187.805 193.218 187.33 195.601C187.053 196.991 187.576 200.125 189.842 199.101C189.008 200.1 190.333 201.36 190.766 202.183C191.064 201.841 191.434 201.722 191.877 201.825C191.048 203.475 191.538 203.518 192.34 204.829C192.487 205.068 193.007 206.322 192.932 206.216C193.752 207.385 194.7 207.679 195.179 209.134C195.572 210.329 195.471 211.644 195.909 212.837C196.439 212.105 196.969 211.373 197.498 210.641C197.39 211.217 197.174 212.069 196.923 212.592C196.764 212.918 196.086 213.681 196.095 213.859C196.132 214.524 196.963 214.364 197.2 214.938C197.644 216.016 197.002 216.174 197.244 217.225C197.522 218.431 198.267 217.949 198.622 218.977C198.689 219.172 198.165 219.94 198.248 220.361C198.365 220.956 198.904 221.289 199.095 221.818C199.58 223.164 199.403 224.15 200.076 225.441C200.337 225.941 200.716 226.275 200.9 226.844C201.061 227.345 200.715 228.41 201.025 228.859C202.526 231.02 202.315 227.297 202.201 226.373C201.246 218.62 198.181 210.618 195.376 203.372C193.982 199.771 192.626 196.058 190.878 192.61C190.175 191.221 189.363 189.788 188.201 188.726C186.73 187.382 184.645 186.844 183.313 185.343C183.523 185.58 181.87 184.015 182.134 184.53C181.898 184.07 182.311 183.448 182.164 183.003C181.981 182.45 181.636 182.334 181.251 181.85C180.56 180.982 179.739 180.55 180.825 179.444C179.213 179.088 178.443 178.565 178.121 176.839C177.886 175.577 178.361 175.659 177.532 174.818C176.701 173.972 176.28 174.632 175.756 173.168C175.129 171.416 174.714 169.034 174.338 167.201C174.01 165.601 174.806 163.247 173.457 162.117C171.748 160.686 170.219 161.292 170.526 158.414C170.824 155.609 169.953 153.909 169.076 151.254C167.328 145.955 166.652 140.359 165.119 134.996C161.847 123.551 156.067 113.232 149.852 103.157C144.109 93.8482 136.08 85.917 128.327 78.2788C126.204 76.1867 124.105 74.0645 122.199 71.7711C120.557 69.7962 119.807 67.1074 118.228 65.2327C117.27 64.0942 115.485 63.6072 114.146 63.0035C111.914 61.9965 109.253 60.6827 106.733 60.8864C107.735 64.262 108.061 68.2066 105.106 70.7379C101.521 73.8085 98.2719 70.6184 94.9856 68.8677C88.9956 65.6764 80.4289 68.606 75.2059 63.8228C73.9616 62.6838 73.6145 60.8637 72.3219 59.7997C71.3729 59.0197 70.0227 58.8217 68.9543 58.2402C65.7084 56.4736 64.1329 53.2397 65.3966 49.6672C66.5521 46.4014 68.3466 45.2687 64.3514 43.6136C61.1084 42.2708 59.8755 40.2476 61.3434 36.6456C62.743 33.2114 65.3073 32.816 67.7333 30.5686C70.083 28.3918 67.3834 25.8584 65.623 24.2244C63.3535 22.1164 62.9194 20.2167 65.5508 18.0245C68.3068 15.7293 72.2417 15.8096 75.454 16.9446C79.0873 18.2276 81.4809 20.3606 83.0182 23.817C84.584 27.3358 88.4648 26.3538 91.6077 25.3731C94.6135 24.4355 95.3958 22.4123 97.3695 20.2337C99.5645 17.8106 104.038 19.8827 106.627 20.9899C113.004 23.7152 119.341 28.0163 119.594 35.6351C119.745 40.1782 117.823 44.0397 116.824 48.304C115.911 52.2036 122.175 51.8964 123.26 55.6686C134.833 49.5421 147.722 47.6674 160.659 47.2503C174.409 46.8065 188.357 46.4509 201.989 48.6198C198.825 43.1066 197.154 37.0609 194.4 31.397C193.608 29.7664 193.267 29.9058 191.518 30.3985C188.158 31.3447 184.823 32.4035 181.47 33.3781C169.222 36.9386 157.214 41.2285 145.371 45.9269C144.22 46.3838 141.65 47.652 140.641 46.2729C139.477 44.6826 142.171 42.722 143.26 41.9221C148.029 38.4236 153.939 36.3002 159.28 33.8458C170.956 28.4811 183.886 25.9347 196.07 21.9503C222.372 13.3471 249.583 6.81327 276.916 2.49776C283.587 1.44463 290.328 1.29044 297.028 0.5087C302.962 -0.183716 308.907 -0.167785 314.841 0.54739C325.8 1.86907 338.505 4.72066 344.695 14.7524C350.282 23.8102 354.012 33.9937 352.587 44.7378C352.158 47.9649 350.792 51.7866 346.809 50.9548C344.047 50.3779 342.58 48.0309 341.298 45.7403C339.36 42.2799 337.446 38.8196 335.346 35.4519C334.567 40.5014 337.398 45.4667 336.953 50.6106C336.65 54.1011 334.721 59.616 330.19 58.6277C323.978 57.2736 321.422 47.5701 318.436 42.9149C318.284 46.5004 319.541 50.0342 319.157 53.6277C318.777 57.1774 316.003 60.5286 312.108 60.0421C308.434 59.5835 306.046 55.6469 304.485 52.6833C302.313 48.5589 300.753 44.137 298.632 39.9854C296.644 36.0937 294.289 31.4607 289.543 30.7296C285.307 30.0765 280.453 31.5882 276.269 32.2117C264.663 33.9414 253.291 36.8863 241.811 39.2656C229.503 41.8162 216.904 43.3655 204.976 47.4813C209.17 53.1902 220.146 51.9567 226.394 52.5695C235.837 53.4957 245.4 54.1927 254.789 55.5593C264.062 56.9089 273.141 59.3047 282.341 61.044C291.494 62.7742 300.63 64.5072 309.486 67.4578C325.928 72.9363 342.644 79.8696 357.131 89.4285C363.871 93.8766 369.859 98.9602 374.022 105.981C378.213 113.046 380.226 121.034 380.994 129.161C381.472 134.221 380.66 138.6 379.68 143.525C378.97 147.091 378.74 153.061 375.881 155.672C370.424 160.655 365.894 140.441 364.886 138C364.161 142.001 365.347 164.541 356.591 162.707C352.684 161.89 351.797 156.526 351.149 153.296C349.967 147.407 348.908 141.399 346.886 135.727C345.588 143.369 345.047 151.331 342.252 158.63C340.394 163.478 335.096 172.079 331.402 163.781C328.631 157.557 329.582 150.414 329.249 143.806C328.881 136.483 326.779 129.42 326.035 122.17C325.746 119.361 326.007 116.195 323.185 114.662C320.762 113.347 317.218 112.918 314.573 112.184C306.736 110.008 298.849 108.008 291.05 105.7C283.247 103.39 275.553 100.692 267.854 98.0579C260.491 95.5391 252.974 94.107 245.522 91.9501C241.285 90.7235 237.099 89.4405 232.803 88.4164C230.803 87.9402 228.779 87.5692 226.785 87.0759C225.306 86.7107 223.358 85.3321 221.838 85.3565C220.273 85.3821 219.685 86.7067 217.891 86.8108C215.959 86.9223 213.995 86.4962 212.074 86.3488C207.395 85.9898 202.42 85.4095 197.752 86.0581C200.558 89.3864 204.348 91.6873 207.669 94.4444C211.5 97.6243 215.207 101.058 218.479 104.813C225.063 112.369 231.286 120.355 237.067 128.541C242.77 136.616 247.361 145.452 251.353 154.48C253.342 158.979 255.273 163.576 256.647 168.305C257.211 170.247 257.672 172.197 258.691 173.964C259.626 175.584 260.943 176.981 259.838 178.937C259.077 178.461 258.394 177.869 257.706 177.298C258.501 182.897 260.216 188.313 261.098 193.895C261.968 199.395 261.932 205.051 261.876 210.605C261.758 222.236 260.893 233.605 258.533 245.014C256.147 256.551 253.082 268 249.216 279.129C245.495 289.845 241.761 301.082 236.567 311.182C231.02 321.969 224.421 333.31 216.391 342.442C221.636 344.59 228.311 344.188 233.865 345.054C239.671 345.958 244.693 347.666 249.641 350.878C254.646 354.129 257.364 358.314 258.056 364.242C258.547 368.46 260.008 374.301 254.473 375.41C250.492 376.207 246.042 374.897 242.053 374.574C235.075 374.008 228.088 373.655 221.094 373.35C214.119 373.046 207.143 372.778 200.166 372.561C196.884 372.46 193.601 372.408 190.32 372.291C188.85 372.238 187.958 372.215 186.64 372.64C185.598 372.977 185.674 373.675 184.513 372.812C182.641 371.419 183.027 367.03 183.079 365.1C183.159 362.122 183.441 359.109 184.022 356.187C184.366 354.45 188.552 343.257 185.297 342.786C189.078 338.632 190.588 332.699 192.286 327.492C194.414 320.969 196.282 314.463 197.748 307.754C200.88 293.421 202.265 278.932 202.265 264.267C187.746 273.216 172.385 278.064 155.284 278.604C138.283 279.142 119.605 277.746 103.461 272.09C95.9846 269.47 89.2881 266.031 82.8783 261.396C80.5808 259.736 78.1195 255.974 75.1041 256.038C71.5054 256.115 67.4755 257.477 63.9019 258.06C57.0677 259.174 48.1476 259.803 42.3614 264.03C39.2185 266.326 36.966 269.54 34.161 272.186C32.0275 274.199 29.206 275.292 27.0884 277.305C24.8035 279.477 25.7109 282.314 21.9223 282.49C18.6838 282.639 15.133 281.337 12.34 279.807C6.76767 276.756 0.833466 270.243 5.98364 264.062Z" fill="#FEEDE1" fill-opacity="0.8"/>
<path fill-rule="evenodd" clip-rule="evenodd" d="M59.5435 118.929C51.3887 124.721 42.0351 128.678 33.5133 133.895C31.3803 135.201 24.735 137.912 24.7992 140.334C24.8368 141.75 26.8338 143.526 27.7083 144.507C29.2063 146.188 30.6156 147.887 31.9982 149.666C38.3261 157.81 44.2853 166.032 51.1435 173.767C52.1761 174.931 55.2866 180.487 56.2908 177.727C56.746 176.476 56.371 175.07 57.5573 173.904C58.1678 173.303 60.5272 172.972 59.8399 171.683C59.3819 171.889 58.9233 172.096 58.4648 172.301C58.8209 171.271 58.7948 170.143 59.3284 169.17C59.6601 168.565 60.3082 168.279 60.5329 167.598C60.8436 166.656 60.3167 165.563 60.4049 164.593C60.492 163.626 60.9932 162.711 61.2925 161.799C63.067 156.389 63.7037 150.936 64.6123 145.354C65.5113 139.831 66.9114 134.482 67.4611 128.897C68.042 122.999 68.7537 117.113 69.7033 111.261C68.0084 111.499 66.7055 113.341 65.5067 114.382C63.6223 116.018 61.5764 117.485 59.5435 118.929ZM65.9363 176.033C66.3254 175.727 66.6298 175.352 66.8494 174.907C62.8525 172.927 65.2643 176.305 65.9363 176.033ZM68.3668 171.81C70.109 172.29 71.3607 172.388 72.704 171.671C72.8314 171.603 72.6846 171.079 72.9145 170.971C73.1153 170.878 73.422 170.994 73.5938 170.906C74.1787 170.608 75.2028 171.26 75.3024 170.121C73.0789 169.441 70.8924 168.185 68.5449 167.974C65.2825 167.68 65.4333 171.001 68.3668 171.81ZM75.9999 165.244C78.377 165.8 80.3353 167.099 82.8609 166.759C85.2317 166.442 87.2919 165.212 89.1621 163.796C84.4836 162.471 79.5775 162.232 74.903 160.951C73.381 160.534 71.3811 159.434 69.7409 159.877C67.9185 160.37 67.8036 162.077 67.2574 163.63C70.1738 164.155 73.1125 164.57 75.9999 165.244ZM90.8672 158.654C93.151 159.199 95.4854 160.392 97.3948 158.333C97.7032 158.001 97.9729 158.333 97.9365 157.309C97.8984 156.23 96.9186 155.535 96.076 155.155C94.0949 154.261 91.3179 154.839 89.2139 154.707C85.8576 154.499 82.4416 153.801 79.1217 153.264C76.8232 152.892 74.4489 152.067 72.0997 152.23C70.2859 152.356 68.0977 153.902 70.7411 155.029C73.1483 156.057 76.7578 155.899 79.3658 156.344C83.2211 157.002 87.0627 157.744 90.8672 158.654ZM93.0981 147.909C92.9502 148.06 92.8022 148.211 92.6543 148.362C92.6788 148.356 91.7787 147.627 91.5403 147.606C90.3825 147.506 89.2178 147.585 88.0583 147.52C85.3865 147.369 82.6936 146.904 80.0696 146.391C77.9321 145.973 75.7547 145.254 73.5546 145.434C71.6497 145.59 71.4494 145.98 71.3248 147.818C76.1871 147.818 81.1956 147.716 85.9742 148.745C89.0853 149.415 92.5138 151.41 94.0722 147.814C93.7473 147.846 93.423 147.878 93.0981 147.909ZM90.0582 140.127C88.8526 141.045 85.5657 139.518 84.1206 139.365C82.5514 139.199 81.075 139.027 79.5542 138.636C78.2057 138.289 73.7446 136.556 72.7102 138.213C71.1245 140.753 77.5452 141.219 78.563 141.344C82.8319 141.872 87.2612 142.339 91.4151 143.459C90.9628 142.349 90.5105 141.238 90.0582 140.127ZM84.2025 131.502C83.8907 132.676 74.2367 128.351 74.0609 131.494C73.9255 133.906 83.6125 135.107 85.3541 134.896C84.9461 133.785 83.8611 132.791 84.2025 131.502ZM80.9612 124.124C80.7558 121.757 80.4383 121.771 78.5397 121.548C77.0917 121.377 75.1015 120.529 75.4782 123.109C75.8008 125.319 81.1677 126.513 80.9612 124.124ZM77.5105 115.979C77.0536 114.708 76.0255 116.418 76.0039 117.065C75.9464 118.785 77.2505 118.413 78.5056 118.413C78.1562 117.609 77.824 116.797 77.5105 115.979ZM61.6213 106.438C61.8774 106.13 63.3145 106.012 63.7236 105.862C64.7295 105.493 64.5867 104.708 65.8737 105.483C65.938 105.418 65.8156 104.835 65.8856 104.808C65.9209 104.795 66.8227 104.455 67.1157 104.267C67.8229 103.814 68.4601 103.371 69.1099 102.802C69.8006 102.199 70.4925 101.322 71.2816 100.842C71.6144 100.639 71.8864 100.352 72.2875 100.29C73.3281 100.129 73.03 100.854 73.9397 100.998C74.5002 101.087 74.9081 100.433 75.6409 100.715C76.2741 100.958 76.6417 101.846 76.9239 102.375C77.9497 104.299 78.7411 106.369 79.7453 108.313C84.8807 118.254 90.7176 127.819 95.692 137.853C98.0878 142.686 100.588 147.554 102.274 152.691C103.49 156.396 106.236 161.808 103.874 165.511C102.156 168.202 98.7165 169.365 95.9724 170.665C91.8435 172.623 88.0372 175.181 83.8628 177.078C78.8851 179.341 74.0512 181.708 69.1992 184.234C67.1299 185.312 65.2626 186.864 63.2001 187.885C61.9388 188.509 59.9907 187.444 59.5799 188.875C57.9988 186.96 55.4396 188.236 53.6105 186.888C52.5346 186.095 51.7483 184.532 50.851 183.556C49.5049 182.091 48.0438 180.732 46.6704 179.293C41.2192 173.578 36.1857 167.626 31.2261 161.488C26.489 155.626 20.9548 150.087 16.9534 143.671C15.3643 141.124 15.0764 138.452 16.125 135.638C16.8908 133.585 18.7353 130.486 21.3701 131.845C20.3711 130.186 24.2251 128.414 25.3943 128.09C25.412 128.085 25.6424 129.36 25.9684 129.328C25.8524 129.339 26.9482 126.504 27.4295 126.141C28.8587 125.059 30.5974 123.797 32.1569 122.907C33.5873 122.09 35.0967 121.686 36.4821 120.772C38.1617 119.665 39.7035 118.352 41.3893 117.252C43.0171 116.19 44.8315 114.935 46.6305 114.205C48.1906 113.572 49.5914 113.448 50.995 112.41C52.7314 111.126 54.246 110.255 56.2487 109.37C57.9812 108.605 60.3821 107.937 61.6213 106.438Z" fill="#FEEDE1" fill-opacity="0.8"/>
<path fill-rule="evenodd" clip-rule="evenodd" d="M298.11 260.194C297.792 259.445 297.474 258.697 297.155 257.95C296.762 259.254 296.651 259.902 298.11 260.194ZM297.686 263.649C298.376 263.773 298.105 261.608 298.105 261.231C296.913 261.906 297.9 262.715 297.686 263.649ZM298.762 257.404C298.174 257.056 297.586 256.709 296.997 256.362C297.817 257.88 297.495 256.931 297.157 257.945C297.775 258.123 298.376 257.915 298.762 257.404ZM302.249 269.268C304.454 277.269 311.458 283.579 318.857 286.848C323.108 288.725 327.287 289.195 331.878 288.986C333.649 288.905 335.732 288.33 337.436 288.437C338.748 288.519 338.689 288.576 339.776 289.687C340.257 288.802 339.908 288.18 340.873 287.665C342.076 287.022 342.576 287.771 343.172 288.661C343.954 287.852 344.273 287.429 345.286 286.948C345.254 286.963 346.254 286.925 346.213 286.938C346.394 286.882 347.483 286.182 347.824 286.055C349.222 285.53 350.839 285.315 352.129 284.562C353.258 283.905 354.188 282.06 355.479 283.477C355.481 281.108 358.672 280.126 360.168 278.885C362.505 276.946 364.363 274.075 365.528 271.298C366.771 268.336 367.186 265.497 367.767 262.446C368.173 260.313 370.834 257.23 369.236 255.079C368.856 255.981 369.034 256.905 368.402 257.723C367.833 256.627 367.52 255.4 367.263 254.2C367.137 253.613 366.405 251.887 366.488 251.375C366.657 250.327 367.954 250.27 367.235 248.986C365.743 250.609 364.539 247.759 365.667 246.622C366.223 247.25 366.427 247.963 366.684 248.74C368.151 245.779 364.091 246.733 364.979 244.06C363.498 243.775 362.646 243.401 362.083 241.938C361.456 240.309 361.917 239.954 360.495 238.877C360.005 238.507 358.622 237.975 358.369 237.367C357.879 236.191 359.125 235.842 358.034 234.74C357.665 235.387 356.228 236.667 355.441 235.449C355.283 235.206 355.945 235.033 355.464 234.473C354.751 233.645 353.953 232.833 352.747 233.007C353.702 230.62 347.602 230.431 346.039 229.868C344.474 229.304 343.145 228.934 341.485 228.803C339.826 228.672 339.744 228.186 338.34 227.187C338.221 228.616 337.877 228.302 336.862 228.554C336.618 228.135 336.367 228.088 336.111 228.413C335.856 228.655 335.544 228.769 335.177 228.755C334.619 228.785 333.987 228.712 333.402 228.724C332.031 228.75 330.616 228.636 329.27 228.665C328.923 228.607 328.599 228.486 328.295 228.303C328.168 228.542 328.041 228.781 327.914 229.021C327.201 229.11 327.146 230.003 326.269 229.026C326.01 230.268 325.265 229.622 324.477 229.959C323.759 230.267 323.645 230.758 322.982 231.101C322.546 231.455 322.079 231.501 321.58 231.242C321.104 231.595 320.622 231.937 320.133 232.268C319.231 232.777 318.168 233.089 317.218 233.491C316.586 233.752 315.958 234.023 315.335 234.304C315.316 235.057 314.979 235.322 314.323 235.101C313.731 235.597 313.564 235.577 312.989 236.421C311.688 238.333 310.533 239.819 308.888 241.528C301.742 248.958 299.546 259.464 302.249 269.268ZM300.055 237.672C303.282 233.351 307.849 228.403 311.953 225.675C314.033 224.291 316.953 221.807 319.497 221.076C320.1 220.902 320.724 220.891 321.317 220.709C321.775 220.568 322.024 220.098 322.546 220.014C322.911 219.954 322.952 220.772 323.34 220.697C324.151 220.539 324.666 219.734 325.238 219.23C326.469 221.351 327.137 217.784 328.944 220.182C331.095 216.81 336.147 217.547 339.581 217.717C340.6 217.767 341.078 218.13 341.981 218.398C342.821 218.648 342.904 218.584 343.822 218.577C346.108 218.559 348.137 218.847 350.249 219.85C353.798 221.536 357.056 224.163 360.427 226.195C364.195 228.465 367.591 231.356 370.473 234.677C380.893 246.685 383.679 264.213 375.371 278.134C362.174 300.244 328.133 302.607 308.844 287.605C293.941 276.013 288.27 253.451 300.055 237.672Z" fill="#FEEDE1" fill-opacity="0.8"/>
<path fill-rule="evenodd" clip-rule="evenodd" d="M136.715 175.453C137.086 176.336 140.544 176.039 140.62 174.997C140.733 173.44 136.072 173.917 136.715 175.453ZM133.042 174.875C131.082 175.034 127.861 176.365 125.972 175.561C123.089 174.333 126.117 172.449 127.663 171.885C129.237 171.312 131.581 171.617 132.39 169.971C132.999 168.734 131.495 165.279 133.361 165.834C135.319 166.417 134.75 171.366 137.823 169.698C139.288 168.902 138.69 164.053 141.145 166.53C141.817 167.208 141.876 168.452 142.766 168.957C143.674 169.473 144.813 168.936 145.771 168.981C148.309 169.1 149.118 171.474 146.546 172.416C145.594 172.764 142.007 173.19 144.18 174.745C145.549 175.725 148.592 173.669 149.768 175.375C151.384 177.718 147.054 177.771 145.891 178.471C143.921 179.658 145.548 182.431 145.391 184.405C145.151 187.422 143.398 186.791 142.762 184.238C142.222 182.072 142.891 178.955 139.626 179.815C134.308 181.217 142.582 187.968 138.687 189.695C136.204 190.797 135.852 184.843 135.659 183.817C134.945 180.033 132.82 180.916 129.599 181.032C125.838 181.168 124.929 178.385 128.913 177.588C130.184 177.334 131.933 177.655 133.037 176.845C133.69 176.367 134.587 174.749 133.042 174.875Z" fill="#FEEDE1" fill-opacity="0.8"/>
<path fill-rule="evenodd" clip-rule="evenodd" d="M271.938 298.505C274.982 297.415 280.076 297.65 280.829 301.582C281.144 303.228 280.53 304.969 279.393 306.165C278.075 307.552 275.976 307.68 276.088 305.266C276.166 303.595 277.756 302.143 274.96 301.806C273.22 301.597 270.647 302.898 270.56 304.82C270.365 309.152 277.864 309.492 280.627 308.742C286.112 307.256 284.622 301.512 280.855 298.89C279.882 298.212 277.09 297.169 276.963 295.762C276.793 293.896 279.101 294.277 280.232 294.523C288.546 296.332 290.358 310.26 281.671 312.886C277.726 314.078 272.17 312.847 269.792 309.274C267.563 305.924 267.533 300.082 271.938 298.505Z" fill="#FEEDE1" fill-opacity="0.8"/>
<path fill-rule="evenodd" clip-rule="evenodd" d="M382.174 199.907C384.773 201.158 387.372 202.41 389.971 203.661C390.83 201.822 392.281 196.8 394.46 196.159C397.988 195.121 395.741 200.595 395.133 201.847C394.633 202.875 393.472 204.468 393.754 205.694C394.132 207.345 396.461 207.93 397.68 208.781C400.698 210.89 400.674 215.318 396.304 213.442C393.831 212.379 390.77 209.434 388.875 212.778C388 214.321 385.926 222.942 383.761 217.304C382.421 213.814 388.87 210.187 385.691 207.234C384.667 206.284 383.469 206.204 382.447 205.658C379.977 204.338 381.37 201.9 382.174 199.907Z" fill="#FEEDE1" fill-opacity="0.8"/>
<path fill-rule="evenodd" clip-rule="evenodd" d="M1.15447 74.9992C2.70373 74.4326 4.62054 73.326 6.34277 73.7032C8.17309 74.1037 8.90989 75.9369 10.2407 77.0389C13.8586 80.0356 15.966 75.5693 17.9539 73.1217C19.8315 70.8106 22.1221 70.2496 24.7712 71.6697C25.8266 72.2358 30.2729 74.8297 29.4974 76.4916C28.9399 77.6875 26.7432 76.6139 25.9938 76.3528C24.3672 75.7867 22.8566 75.2911 21.193 76.1167C18.0723 77.6642 17.2627 81.908 13.4871 82.5697C9.58296 83.2542 9.45494 79.5389 6.66878 78.1404C4.8009 77.2034 3.4997 78.8624 1.69783 78.5319C-0.0192719 78.2172 -0.81354 75.7184 1.15447 74.9992Z" fill="#FEEDE1" fill-opacity="0.8"/>
<path fill-rule="evenodd" clip-rule="evenodd" d="M32.6742 89.9724C31.2933 90.2723 30.3921 87.5942 29.5279 86.9149C28.0941 85.7889 25.6083 85.5619 24.1484 86.6953C21.2974 88.9074 22.28 93.6832 18.2205 94.928C14.5923 96.0409 12.8831 91.2623 9.82901 90.0726C8.0533 89.3807 6.10408 88.9279 6.79707 86.4455C7.27556 84.729 8.68542 84.288 10.2182 84.9475C12.8524 86.0797 13.7468 90.6922 16.8698 90.7747C20.1009 90.86 20.4514 86.202 21.8385 84.1731C23.9533 81.0809 28.3006 80.3338 30.771 83.2907C31.5169 84.1828 35.3039 89.4029 32.6742 89.9724Z" fill="#FEEDE1" fill-opacity="0.8"/>
<path fill-rule="evenodd" clip-rule="evenodd" d="M96.5425 37.1679C94.6217 38.4821 90.7938 38.4366 89.0244 36.8066C87.2236 35.1481 89.6275 34.8932 91.0942 34.9438C92.2224 34.9831 94.3344 35.5424 93.6915 33.5937C93.1208 31.8646 89.9842 32.7448 89.7225 30.8468C92.083 30.4235 94.6832 30.576 96.4293 32.4313C97.6918 33.7723 98.3404 35.9372 96.5425 37.1679Z" fill="#FEEDE1" fill-opacity="0.8"/>
</svg>
