<svg width="450" height="279" viewBox="0 0 450 279" fill="none" xmlns="http://www.w3.org/2000/svg">
<path fill-rule="evenodd" clip-rule="evenodd" d="M331.951 224.736C329.82 227.202 326.671 229.032 324.256 231.286C321.719 233.654 318.966 235.723 316.44 238.062C305.295 224.44 290.027 216.088 276.801 204.784C270.531 199.425 265.911 192.156 262.53 184.696C260.797 180.872 259.517 176.935 258.515 172.861C258.064 171.026 257.622 169.197 257.327 167.337C256.97 165.084 256.877 164.892 255.358 163.134C254.704 162.378 253.436 160.167 252.155 160.411C251.076 160.616 249.104 163.898 248.422 164.709C245.145 168.609 241.968 172.628 238.517 176.377C233.238 182.113 228.432 187.758 223.53 193.838C213.504 206.277 202.688 217.986 191.774 229.691C190.965 230.558 189.077 233.104 187.914 233.446C186.5 233.862 184.202 232.127 182.778 231.158C179.341 228.818 176.632 225.921 173.693 223.021C167.959 217.361 164.076 209.416 161.464 201.857C159.9 197.332 158.884 192.642 157.27 188.133C156.598 186.253 155.073 183.943 155.847 182.306C156.077 181.818 157.544 180.522 158.062 180.423C158.673 180.305 159.693 181.144 159.906 181.086C161.935 180.53 160.809 178.406 162.016 177.263C162.701 176.614 166.182 176.709 167.221 176.353C171.021 175.049 174.43 172.563 178.022 171.079C193.061 164.865 208.282 158.822 221.265 148.676C224.632 146.045 226.869 144.068 230.887 142.367C234.947 140.649 239.028 139.116 243.17 137.616C246.825 136.293 250.5 135.053 254.276 134.105C258.359 133.079 264.15 131.779 268.229 133.1C276.24 135.694 278.827 142.294 282.017 149.257C286.334 158.678 291.552 167.593 297.21 176.264C308.094 192.947 321.331 207.918 331.951 224.736Z" fill="#462730"/>
<path fill-rule="evenodd" clip-rule="evenodd" d="M90.695 77.2448C90.2542 77.0211 86.8125 78.4219 86.2348 78.6362C83.9273 79.4923 81.7539 80.9149 79.5799 82.0722C81.246 84.0998 82.9126 86.1279 84.5782 88.1559C86.2112 84.1503 88.3101 80.845 90.695 77.2448ZM91.831 102.168C91.2642 102.231 96.05 113.732 96.6089 115.023C98.6426 119.72 100.778 124.371 102.838 129.056C104.835 133.595 107.368 137.772 109.919 142.013C112.101 145.64 114.346 151.269 117.638 153.956C115.56 144.734 115.833 134.131 109.871 126.388C103.691 118.361 97.5811 110.523 91.831 102.168ZM331.951 225.146C322.716 210.521 311.155 197.584 301.525 183.221C296.133 175.178 290.884 167.033 286.345 158.472C283.044 152.245 280.992 143.36 275.892 138.599C273.645 136.502 271.244 134.449 268.229 133.509C264.102 132.223 258.421 133.498 254.275 134.514C246.551 136.408 239.004 139.35 231.687 142.439C224.265 145.572 217.933 151.2 211.227 155.721C204.034 160.572 196.247 164.106 188.188 167.199C181.171 169.893 174.928 173.76 167.948 176.471C166.557 177.011 163.718 176.932 162.552 177.637C161.294 178.395 161.789 180.635 160.263 181.461C159.574 181.834 159.345 180.483 158.816 180.505C158.17 180.532 157.58 181.291 156.957 181.771C154.42 183.728 155.975 185.033 156.979 187.726C160.253 196.501 162.013 205.429 166.61 213.713C170.389 220.523 175.798 226.624 182.167 231.132C183.136 231.818 186.294 234.477 187.431 234.3C188.455 234.141 190.538 231.42 191.245 230.681C194.452 227.327 197.383 223.719 200.589 220.36C205.541 215.169 210.309 209.838 215.116 204.576C220.696 198.467 225.634 191.546 230.66 185.019C232.971 182.016 235.947 179.57 238.517 176.786C241.972 173.042 245.145 169.018 248.422 165.119C249.414 163.939 251.075 160.921 252.616 160.956C253.696 160.981 255.6 163.523 256.165 164.32C258.264 167.282 258.255 172.63 259.299 176.327C261.846 185.342 266.44 194.147 272.741 201.103C279.006 208.021 287.031 212.94 294.441 218.501C302.468 224.525 310.073 230.69 316.439 238.471C318.966 236.132 321.719 234.063 324.255 231.695C326.671 229.441 329.819 227.611 331.951 225.146ZM213.075 266.519C214.87 266.538 217.911 267.642 219.517 266.977C214.753 261.705 210.377 257.182 204.35 253.319C198.095 249.31 191.86 245.337 185.785 241.061C173.541 232.444 164.536 222.224 159.422 207.873C158.105 204.178 157.223 200.302 156.258 196.503C155.739 194.457 154.705 184.885 152.95 184.059C151.91 183.569 144.085 189.069 142.845 189.754C139.946 191.357 137.036 192.601 134.039 193.855C127.597 196.552 120.956 198.61 114.124 200.327C105.934 202.386 100.355 198.979 95.2817 192.542C89.5254 185.239 84.742 176.998 79.4789 169.329C77.0855 165.84 75.1028 162.358 73.3352 158.51C72.1784 155.993 67.5903 149.2 69.1757 146.518C73.6986 149.962 75.326 156.809 78.4071 161.419C82.2471 167.166 86.5746 172.584 90.4345 178.325C93.6802 183.152 96.9916 189.002 101.787 192.473C106.005 195.525 110.012 194.587 114.552 193.215C120.053 191.552 125.756 190.733 131.148 188.671C136.983 186.44 142.504 183.275 148.197 180.694C150.851 179.49 154.029 178.807 156.53 177.306C158.685 176.014 158.364 175.331 158.522 172.579C158.707 169.368 158.92 166.155 159.062 162.942C159.157 160.782 157.989 157.855 158.782 156.243C152.319 157.363 146.002 158.864 139.584 160.192C136.07 160.919 132.682 161.817 129.132 162.388C127.779 162.606 125.929 162.6 124.717 163.189C123.751 162.912 123.258 163.088 123.239 163.718C123.193 164.061 123.12 164.398 123.019 164.73C121.037 165.631 119.885 163.698 118.166 161.843C116.045 159.554 114.457 156.976 112.901 154.286C109.421 148.272 105.411 142.616 102.191 136.433C98.9093 130.129 96.244 123.38 93.4617 116.841C90.9093 110.841 89.2748 104.352 86.4543 98.4946C85.1955 95.8798 83.6002 93.7177 81.7374 91.5089C80.2001 89.6861 77.8351 85.7541 75.5394 84.9168C74.9324 84.6954 73.3428 85.0673 72.6532 85.0182C71.2788 84.9201 70.0541 84.4155 68.6476 84.526C65.6024 84.7643 62.2825 86.69 59.849 88.383C61.4216 89.7847 65.3555 91.4886 62.5298 94.0136C59.7876 96.4651 58.273 92.0677 57.2267 90.1411C52.2992 94.1873 53.0115 99.7666 52.4423 105.484C52.1449 108.468 51.3628 111.408 50.8583 114.348C50.4949 116.464 50.7497 118.652 50.6459 120.812C50.3811 126.302 49.8294 131.557 49.8563 136.969C49.8846 142.755 50.2787 148.342 50.7417 154.085C51.521 163.755 53.3064 173.428 54.8375 183.021C55.6989 188.414 56.8779 193.653 58.0224 198.958C59.3213 204.979 61.7241 210.681 63.0716 216.687C64.4446 214.942 65.4773 214.933 67.6979 215.164C69.406 215.342 70.5534 214.936 70.4533 217.307C70.3887 218.844 69.0322 220.019 67.5313 220.287C65.5741 220.637 64.909 219.66 63.9004 218.178C63.6644 220.985 65.5523 223.92 66.299 226.662C67.0055 229.26 67.4738 231.807 68.6612 234.294C69.8199 236.72 70.812 239.113 71.9844 241.516C72.5244 242.621 73.0294 243.744 73.5755 244.846C73.8516 245.405 74.1768 246.174 74.5888 246.645C75.5554 247.748 75.4015 247.213 76.5329 247.842C78.9975 249.211 78.072 248.87 78.1296 251.697C78.1857 254.486 79.6158 256.534 81.9091 258.102C86.7748 261.428 91.5738 262.353 97.1054 264.034C102.259 265.6 107.688 266.944 113.145 266.913C119.83 266.876 126.425 265.999 133.109 265.911C140.483 265.813 147.928 265.853 155.287 266.108C158.319 266.213 161.134 266.348 164.061 267.122C167.46 268.021 170.747 267.665 174.25 267.528C181.724 267.237 189.455 266.659 196.83 266.607C202.141 266.57 207.744 266.199 213.075 266.519ZM406.863 269.416C408.191 270.118 411.169 269.83 412.505 269.635C414.858 269.292 415.11 268.359 416.603 266.261C419.172 262.648 421.258 259.188 422.77 255.003C425.663 246.993 426.845 238.799 428.115 230.42C429.526 221.11 426.948 211.459 426.026 202.212C425.814 200.091 425.524 197.989 425.189 195.883C424.989 194.624 424.936 190.342 424.108 189.252C422.517 187.159 415.116 188.847 412.206 189.037C404.084 189.568 395.909 189.692 387.791 189.784C383.463 189.833 379.11 190.014 374.825 190.048C372.857 190.063 370.932 189.965 368.957 189.774C368.296 189.71 367.651 189.558 366.986 189.521C364.707 189.395 364.878 189.065 364.289 191.083C363.258 194.618 364.051 199.115 363.781 202.784C363.418 207.687 363.222 212.66 363.312 217.573C363.395 222.113 363.24 226.643 363.41 231.194C363.48 233.078 363.686 234.614 364.183 236.414C364.745 238.449 365.364 243.203 366.763 244.61C366.922 244.771 368.112 244.397 368.428 244.796C368.915 245.411 368.825 246.713 369.16 247.11C370.241 248.397 372.476 248.499 374.097 249.077C378.545 250.663 382.626 252.385 386.819 254.524C390.565 256.435 396.605 258.062 398.857 261.832C399.89 263.56 400.029 265.839 400.978 267.623C402.06 269.654 399.896 268.592 402.545 269.416C403.739 269.787 405.64 269.416 406.863 269.416ZM11.9339 246.441C11.5969 251.132 8.95434 255.6 8.03446 260.213C7.60402 262.372 6.87387 264.495 6.36791 266.642C5.88272 268.702 4.1298 271.141 4.30727 273.179C10.7771 270.874 17.3305 270.294 24.0925 269.673C30.5015 269.083 37.272 268.849 43.6271 268.846C50.1031 268.843 57.0275 268.21 63.6956 268.112C70.669 268.01 77.7477 267.829 84.6202 267.106C81.0266 264.444 76.53 261.945 73.8766 258.242C70.9919 254.216 69.4938 249.173 66.9555 244.925C61.862 236.4 58.6237 225.823 55.9538 216.246C50.5633 196.913 44.5395 177.937 43.0877 157.883C40.3247 159.298 38.1315 164.788 36.7481 167.522C34.9824 171.012 34.0578 174.795 32.91 178.505C30.5463 186.146 28.9105 194.068 26.0163 201.637C20.4847 216.104 16.9293 231.692 11.9339 246.441ZM363.137 133.763C364.334 142.41 366.843 151.168 366.939 159.919C366.96 161.844 366.634 163.982 367.035 165.881C367.464 167.907 368.858 169.699 369.662 171.625C370.939 174.682 374.174 180.949 371.055 183.54C370.991 181.081 368.741 177.959 367.608 175.81C365.9 172.57 363.656 169.609 361.804 166.45C357.928 159.838 353.585 153.367 348.59 147.539C343.725 141.861 338.118 136.824 332.959 131.418C331.409 129.793 318.974 114.158 318.48 114.377C322.337 129.25 328.894 142.192 337.867 154.646C342.266 160.751 347.546 164.768 352.901 169.94C357.361 174.247 365.767 178.853 364.225 185.91C371.196 185.24 378.122 184.169 385.157 184.169C384 175.265 383.114 166.503 381.049 157.745C378.704 147.801 377.116 137.56 375.132 127.527C373.107 117.285 369.672 107.37 367.536 97.1476C365.49 87.3588 363.732 77.5874 362.232 67.6896C360.993 73.174 361.45 79.1978 361.01 84.7936C360.561 90.5106 360.604 96.1224 360.754 101.873C361.031 112.554 362.169 123.107 363.137 133.763ZM393.347 82.8377C393.386 78.2657 394.272 73.7555 394.545 69.1943C394.629 67.7949 396.023 58.2473 394.723 57.7489C393.654 60.0795 393.405 63.0619 392.434 65.5072C391.464 67.9502 390.166 70.2775 389.236 72.7374C387.219 78.0665 386.524 84.0965 386.307 89.7621C385.815 102.577 385.561 115.363 386.423 128.179C386.792 133.671 387.075 139.174 386.974 144.677C386.863 150.733 385.936 155.99 387.062 161.996C388.177 167.944 388.877 173.867 389.248 179.902C389.509 184.138 389.614 183.838 393.655 183.54C396.572 183.325 399.518 183.555 402.44 183.421C401.074 166.913 400.85 150.371 398.669 133.927C397.555 125.537 397.525 117.027 396.143 108.669C395.455 104.517 394.302 100.448 393.64 96.2914C392.928 91.8284 393.279 87.3352 393.347 82.8377ZM97.8384 72.449C105.618 73.123 113.893 75.4489 121.867 73.9131C120.553 73.3807 117.113 72.6463 118.661 70.5451C120.235 68.4085 122.888 71.1185 124.457 70.8387C125.425 70.6659 127.564 66.6197 128.161 65.7819C129.515 63.8779 129.678 63.5462 132.113 63.0581C134.472 62.5862 135.007 63.0973 135.306 60.752C135.649 58.0552 134.716 55.0232 134.808 52.2654C135.007 46.3284 136.922 41.1221 138.705 35.5362C131.131 37.1839 123.725 39.1379 115.981 40.1998C112.671 40.6539 107.52 41.7012 104.513 39.4508C103.731 38.8656 103.856 38.0755 103.216 37.3972C102.143 36.2593 100.152 35.0822 98.6299 34.7579C89.2625 32.7638 88.3488 46.1175 93.0431 51.1143C94.2188 52.3664 95.8546 52.9847 97.0587 54.1321C98.6657 55.6623 98.7974 57.2741 99.032 59.6099C99.4719 63.9898 98.8743 68.3867 97.0058 72.3933L97.8384 72.449ZM211.512 135.491C214.277 136.016 217.163 135.896 219.935 136.344C220.92 136.503 223.874 137.058 224.74 136.482C226.062 135.603 226.532 132.378 227.158 130.876C228.257 128.234 229.813 125.93 230.862 123.24C235.148 112.254 239.144 101.223 244.327 90.6116C242.341 90.0953 240.815 90.075 238.813 89.8083C236.727 89.5303 234.837 88.2971 232.847 87.767C230.956 87.2634 228.974 87.3918 227.1 86.8061C226.068 86.4837 225.182 85.7668 224.165 85.5162C222.543 85.1174 220.649 84.8842 219.685 85.949C218.696 87.0411 218.349 90.0358 217.811 91.4466C216.378 95.2049 214.713 98.832 213.513 102.677C212.43 106.144 211.401 109.575 210.448 113.074C209.44 116.769 207.455 119.813 206.246 123.342C205.326 126.028 204.458 128.774 204.321 131.638C204.187 134.433 203.781 134.611 206.575 135.057C207.986 135.282 210.184 136.121 211.512 135.491ZM393.454 266.283C394.174 266.619 394.853 266.574 395.49 266.149C389.246 263.512 383.172 259.854 376.658 258.044C370.547 256.348 364.608 254.32 358.721 252.23C353.937 250.532 349.637 249.21 345.312 246.221C342.687 244.407 340.355 242.367 338.551 239.716C336.543 236.764 336.096 232.564 333.921 229.906C330.985 233.13 327.537 235.571 324.063 238.133C322.862 239.019 319.979 240.952 319.568 242.323C319.049 244.054 320.439 245.71 321.126 247.461C322.886 251.947 323.746 256.43 324.701 261.094C325.084 262.963 325.91 265.772 327.445 266.555C328.843 267.268 332.892 266.75 334.632 266.618C343.708 265.93 352.623 265.226 361.754 265.852C372.086 266.561 383.148 267.05 393.454 266.283ZM411.582 183.162C413.231 183.168 414.843 182.962 416.486 182.962C415.537 178.532 417.755 172.801 418.542 168.379C419.421 163.433 420.091 158.319 420.678 153.334C421.914 142.833 422.475 132.459 422.491 121.881C422.506 111.645 424.369 102.292 426.979 92.4519C429.782 81.8843 434.371 72.3811 438.166 62.1897C434.004 64.39 431.699 69.5388 429.512 73.4751C426.747 78.4521 424.906 83.9629 423.777 89.5502C421.599 100.329 419.209 111.14 416.696 121.9C414.079 133.105 412.54 144.412 409.542 155.524C408.08 160.944 406.092 167.611 405.982 173.199C405.936 175.511 405.239 180.353 406.287 182.361C407.267 184.239 409.433 183.354 411.582 183.162ZM162.59 169.261C162.503 170.412 162.421 171.506 162.217 172.643C164.502 172.621 167.395 170.25 169.355 169.186C171.742 167.889 174.132 166.459 176.467 165.156C180.975 162.639 186.092 160.981 190.905 158.914C196.433 156.539 201.515 153.67 206.802 150.81C208.649 149.812 221.922 144.058 221.699 142.487C218.785 142.389 215.871 142.293 212.957 142.196C210.459 142.113 206.589 142.677 204.197 141.905C202.887 141.482 201.415 139.924 200.921 138.704C200.431 137.496 201.532 131.944 200.892 131.59C197.631 134.919 195.58 139.345 192.664 142.937C189.442 146.908 185.278 149.226 180.689 151.336C175.621 153.666 170.376 155.47 165.197 157.467C163.013 158.309 163.057 158.791 162.866 161.186C162.653 163.862 162.677 166.577 162.59 169.261ZM425.928 269.962C431.421 270.551 437.051 270.215 442.587 270.675C444.602 270.842 447.394 271.091 445.368 273.795C444.092 275.498 440.003 274.951 438.149 275.069C433.17 275.386 427.899 275.216 422.908 275.142C421.858 275.127 420.697 274.815 419.635 274.885C418.409 274.966 416.941 275.847 415.824 275.841C415.135 275.836 414.888 275.11 414.295 275.044C413.001 274.898 411.708 274.792 410.403 274.792C390.679 274.797 371.226 274.4 351.552 274.379C342.144 274.369 332.585 274.207 323.181 273.765C321.206 273.672 309.96 274.076 310.271 270.52C310.431 268.689 314.102 268.431 315.441 268.236C316.434 268.092 317.464 268.115 318.458 268.062C321.1 267.92 322.257 268.556 321.7 265.665C319.586 254.7 315.798 245.638 307.705 237.754C301.086 231.307 293.118 225.46 285.622 220.076C276.52 213.539 269.137 206.664 263.733 196.662C260.577 190.821 257.936 184.849 256.314 178.39C255.731 176.067 255.717 173.424 255.002 171.184C254.452 169.46 253.199 168.253 252.461 166.466C243.405 181.591 231.403 194.245 220.399 207.883C215.141 214.398 209.142 220.586 202.86 226.254C200.995 227.936 199.256 229.692 197.516 231.502C196.06 233.017 193.749 234.364 192.52 236.045C191.341 237.657 191.631 237.58 193.426 238.86C195.798 240.552 198.412 241.958 200.822 243.608C204.673 246.246 208.877 248.475 212.32 251.65C216.045 255.083 219.299 259.06 222.554 262.931C224.724 265.511 227.571 268.822 228.116 272.084C228.297 273.164 228.983 275.833 228.077 276.624C227.303 277.299 227.381 277.043 226.42 276.631C225.161 276.091 224.791 274.852 223.252 274.261C219.317 272.751 214.554 273.27 210.459 273.251C206.362 273.233 202.231 273.693 198.136 273.676C188.785 273.638 179.634 274.395 170.286 274.801C160.357 275.233 150.307 274.197 140.412 274.344C133.08 274.453 125.553 273.905 118.019 274.312C114.143 274.521 110.337 274.036 106.559 273.982C101.611 273.911 96.5305 274.584 91.5408 274.68C83.351 274.838 75.2614 274.837 67.0216 275.034C49.2979 275.458 31.6701 275.896 13.9361 276.177C11.5705 276.214 8.98078 276.134 6.64308 276.4C4.1619 276.683 5.44284 277.21 3.74042 278.104C-1.0256 280.604 0.0750538 271.336 0.189272 269.513C0.801898 259.745 3.28166 250.165 6.26172 240.892C9.08886 232.096 11.3841 222.891 13.7784 213.906C16.3993 204.071 19.8141 194.639 22.9149 184.901C26.0923 174.923 28.6792 164.555 34.45 155.71C35.7645 153.696 37.1228 151.528 39.2373 150.258C41.6076 148.834 41.7095 149.665 41.7076 147.06C41.7062 144.605 41.8572 141.326 41.2781 138.984C40.7547 136.869 40.8354 138.123 39.6569 136.603C38.6978 135.367 37.6944 134.522 37.0063 133.022C32.7792 137.308 23.1033 135.046 19.0192 131.96C14.0205 128.182 10.2131 121.809 8.81794 115.739C7.69747 110.865 9.07234 101.574 14.467 99.2304C17.0969 98.0877 26.7564 97.224 27.1429 93.5001C27.3421 91.5778 23.9424 88.8748 23.158 87.2219C21.7043 84.1597 20.3082 80.0866 19.9042 76.7299C19.1151 70.1779 22.0895 62.8514 26.8276 58.4257C35.5195 50.3067 50.813 46.1401 61.9936 51.2913C59.6309 42.2657 58.2046 34.4795 59.3945 25.0909C60.4196 17.0027 65.1917 12.4774 71.7584 8.44856C82.964 1.57267 98.2023 -1.14119 111.015 0.858099C113.927 1.31261 116.721 2.28724 119.417 3.0627C123.333 4.18931 128.022 3.81409 131.72 5.64456C134.401 6.97128 136.437 9.61435 138.792 11.3791C141.541 13.4392 143.825 16.5142 145.735 19.3578C149.82 25.4388 148.224 36.7247 144.805 42.8287C144.072 44.138 143.167 45.2401 141.954 46.1335C140.691 47.0633 138.765 47.3526 138.114 48.5585C136.447 51.6476 138.055 58.3351 138.278 61.6738C138.537 65.5506 136.577 68.4627 132.181 68.7719C129.638 68.9512 129.557 67.4758 128.339 70.5116C127.55 72.4792 126.833 74.623 125.694 76.4269C123.346 80.1446 119.045 79.7817 115.128 79.6811C110.593 79.5641 106.126 78.8476 101.589 78.3955C102.787 82.235 106.068 85.2151 108.116 88.6355C110.886 93.2618 112.553 97.0966 113.003 102.487C113.348 106.628 112.603 109.898 109.769 112.98C108.596 114.256 107.556 114.319 107.848 115.79C108.025 116.688 109.577 118.169 110.127 118.885C111.58 120.781 113.267 122.521 114.546 124.545C119.468 132.333 120.922 144.206 120.934 153.273C120.935 153.689 121.156 154.573 120.973 155.003C120.837 155.321 119.804 156.326 119.789 156.413C119.587 157.578 120.724 159.577 122.507 159.775C124.38 159.982 127.811 158.419 129.554 157.905C132.342 157.083 135.184 156.476 137.967 155.632C142.46 154.268 146.933 153.181 151.502 152.112C153.566 151.63 155.642 151.228 157.713 150.776C160.072 150.263 161.168 149.27 162.385 151.67C163.43 153.73 162.78 154.103 165.311 153.065C167.823 152.034 170.278 150.756 172.731 149.592C177.057 147.54 182.209 145.711 185.941 142.681C192.166 137.627 194.471 129.578 200.429 124.214C202.088 122.721 203.077 122.695 204.126 120.626C205.249 118.412 205.828 115.573 206.418 113.191C207.452 109.021 208.188 104.836 209.126 100.669C210.294 95.4782 212.818 90.7773 214.661 85.8263C215.378 83.8973 215.75 81.4454 216.908 79.7118C217.215 79.2521 217.801 78.993 218.04 78.6126C218.864 77.3066 218.855 76.9479 219.069 75.3767C220.067 68.0351 224.449 71.8973 229.238 73.5808C231.256 74.2902 240.836 78.8906 237.178 81.9499C241.539 83.2153 248.524 82.5276 248.465 88.7775C248.435 91.9799 246.52 95.4055 245.492 98.403C244.579 101.064 243.696 103.736 242.769 106.394C240.737 112.214 238.272 117.861 236.289 123.7C235.385 126.361 234.639 129.084 233.381 131.596C232.271 133.811 229.584 136.253 229.142 138.676C240.763 133.718 251.514 126.549 264.522 127.006C270.218 127.206 275.387 129.6 278.533 134.608C282.477 140.886 285.072 147.914 288.927 154.249C302.949 177.295 319.674 198.232 335.068 220.324C336.251 222.022 337.771 223.627 338.181 225.725C338.449 227.094 337.93 228.463 338.251 229.778C338.917 232.511 342.282 235.923 344.563 237.493C348.936 240.503 356.046 244.749 361.503 244.374C358.078 236.142 358.124 227.123 358.283 218.343C358.434 210.003 359.336 201.73 360.406 193.475C360.648 191.607 360.859 189.876 361.396 188.066C362.012 185.99 362.857 186.186 361.012 184.32C358.173 181.445 354.796 179.08 351.933 176.17C345.742 169.877 339.397 164.944 334.524 157.429C329.89 150.281 325.002 142.926 321.571 135.098C318.04 127.04 316.628 118.435 314.875 109.901C314.164 106.438 311.57 102.572 312.091 98.9557C312.75 94.3856 314.869 97.7135 315.732 100.173C318.365 107.681 324.529 114.4 329.635 120.438C335.151 126.961 341.898 132.418 347.656 138.751C353.927 145.649 358.222 153.576 363.798 160.938C363.798 151.801 360.678 142.496 359.402 133.457C358.279 125.501 357.926 117.52 357.216 109.529C355.604 91.3781 356.997 72.6921 359.259 54.6706C360.335 46.1118 359.725 37.7545 359.757 29.1664C359.768 26.4332 358.636 20.1338 360.078 17.7083C362.84 13.0626 364.451 23.221 364.59 24.7355C365.425 33.7578 363.928 42.6796 364.693 51.6632C365.492 61.0447 367.227 70.1628 368.704 79.4357C370.303 89.4761 372.907 99.2899 375.4 109.138C378.018 119.477 380.219 130.033 383.129 140.29C383.914 137.065 382.813 133.105 382.595 129.821C382.285 125.122 381.678 120.422 381.626 115.711C381.542 108.202 381.483 100.554 381.908 93.0805C382.327 85.7139 382.2 77.9948 384.46 70.8977C385.532 67.5292 387.105 64.2428 388.643 61.0697C390.542 57.157 391.213 53.3633 392.264 49.2018C393.164 45.6379 394.482 42.168 395.082 38.5328C395.455 36.272 396.496 29.5983 399.084 34.6546C400.587 37.5893 399.937 41.94 399.979 45.0928C400.033 49.1348 399.414 53.065 399.319 57.09C399.135 64.9871 399.002 72.8748 398.413 80.7587C397.795 89.03 398.335 96.4429 399.908 104.593C401.631 113.514 402.135 122.455 403.027 131.485C403.487 136.148 404.263 140.785 404.638 145.454C404.836 147.927 403.82 155.017 405.591 156.778C405.763 152.495 406.99 148.209 407.92 144.036C409.022 139.092 409.467 133.894 410.28 128.879C411.595 120.755 414.147 112.996 415.836 104.963C419.317 88.4023 422.209 67.1185 436.797 56.2791C438.706 54.8608 440.803 53.814 442.867 52.6468C444.035 51.986 445.77 50.2765 447.107 49.9782C448.566 49.6526 449.174 49.9056 449.766 51.5981C450.59 53.9575 449.082 55.0595 447.674 56.7733C442.802 62.7032 440.721 70.3049 437.712 77.2594C430.823 93.1844 427.775 109.981 427.74 127.195C427.722 136.206 427.1 144.898 426.139 153.855C425.105 163.494 423.744 173.688 420.815 182.961C423.752 183.62 426.939 182.638 427.736 186.052C427.932 186.891 427.578 187.883 427.795 188.974C428.005 190.035 428.512 191.091 428.811 192.134C429.431 194.293 429.758 196.422 430.059 198.639C431.224 207.204 433.223 215.351 433.436 224.036C433.632 232.063 432.06 240.197 430.612 248.071C429.153 256.001 424.969 262.761 421.675 269.932C423.093 269.932 424.51 269.947 425.928 269.962Z" fill="#FEEDE1" fill-opacity="0.8"/>
<path fill-rule="evenodd" clip-rule="evenodd" d="M239.496 251.732C237.934 252.174 230.392 253.008 230.394 255.374C230.395 256.793 237.926 256.765 239.259 256.92C239.338 255.191 239.417 253.462 239.496 251.732ZM256.143 268.062C260.489 268.889 266.388 267.727 269.167 263.895C270.465 262.105 271.081 259.382 271.504 257.245C271.908 255.209 273.153 250.128 272.306 248.22C271.265 245.876 261.279 248.326 258.371 248.595C253.298 249.063 248.052 249.118 242.976 248.787C242.976 254.029 242.707 259.138 245.79 263.649C248.015 266.904 252.192 267.673 256.143 268.062ZM255.27 274.537C250.547 272.808 245.59 273.932 242.515 268.862C241.735 267.576 241.078 266.193 240.606 264.764C240.375 264.139 240.196 263.498 240.068 262.841C240.308 261.428 239.791 261.03 238.515 261.646C236.012 261.159 233.268 262.877 230.631 262.371C224.237 261.143 225.399 251.983 229.69 248.812C230.538 248.185 231.384 248.011 232.355 247.702C234.494 247.02 235.651 247.781 237.608 247.588C239.189 247.432 239.624 245.774 241.323 245.043C242.435 244.566 243.979 244.603 245.149 244.554C251.27 244.303 257.41 244.305 263.569 243.906C266.442 243.72 269.544 244.175 272.358 243.685C273.676 243.454 273.487 242.577 274.735 243.347C276.027 244.143 275.469 247.089 275.404 248.264C275.026 255.057 274.622 262.343 270.983 268.282C267.654 273.716 261.102 274.271 255.27 274.537Z" fill="#FEEDE1" fill-opacity="0.8"/>
<path fill-rule="evenodd" clip-rule="evenodd" d="M5.88342 276.408C7.40271 276.392 8.92154 276.376 10.4356 276.36C8.91446 276.377 7.39894 276.392 5.88342 276.408Z" fill="#FEEDE1" fill-opacity="0.8"/>
<path fill-rule="evenodd" clip-rule="evenodd" d="M427.75 131.57C427.747 130.111 427.744 128.651 427.741 127.195C427.744 128.655 427.747 130.112 427.75 131.57Z" fill="#FEEDE1" fill-opacity="0.8"/>
<path fill-rule="evenodd" clip-rule="evenodd" d="M41.2823 137.563C41.2776 138.984 41.2729 140.406 41.2682 141.824C41.2724 140.402 41.2772 138.982 41.2823 137.563Z" fill="#FEEDE1" fill-opacity="0.8"/>
<path fill-rule="evenodd" clip-rule="evenodd" d="M167.57 274.797C168.779 274.799 169.988 274.8 171.191 274.803C169.98 274.802 168.776 274.8 167.57 274.797Z" fill="#FEEDE1" fill-opacity="0.8"/>
<path fill-rule="evenodd" clip-rule="evenodd" d="M94.1783 274.507C95.3871 274.511 96.5953 274.515 97.7984 274.519C96.5878 274.516 95.3833 274.511 94.1783 274.507Z" fill="#FEEDE1" fill-opacity="0.8"/>
<path fill-rule="evenodd" clip-rule="evenodd" d="M358.444 215.467C358.391 216.426 358.337 217.385 358.284 218.343C358.338 217.382 358.391 216.425 358.444 215.467Z" fill="#FEEDE1" fill-opacity="0.8"/>
<path fill-rule="evenodd" clip-rule="evenodd" d="M425.929 269.962C424.995 269.952 424.061 269.942 423.127 269.932C424.065 269.541 424.999 269.559 425.929 269.962Z" fill="#FEEDE1" fill-opacity="0.8"/>
<path fill-rule="evenodd" clip-rule="evenodd" d="M342.998 274.21C343.669 274.2 344.339 274.189 345.003 274.178C344.331 274.188 343.665 274.199 342.998 274.21Z" fill="#FEEDE1" fill-opacity="0.8"/>
<path fill-rule="evenodd" clip-rule="evenodd" d="M427.386 143.411C427.402 142.685 427.419 141.96 427.435 141.238C427.419 141.964 427.402 142.687 427.386 143.411Z" fill="#FEEDE1" fill-opacity="0.8"/>
<path fill-rule="evenodd" clip-rule="evenodd" d="M364.692 51.6633C364.637 50.9152 364.582 50.1676 364.526 49.4214C364.582 50.1699 364.637 50.9166 364.692 51.6633Z" fill="#FEEDE1" fill-opacity="0.8"/>
<path fill-rule="evenodd" clip-rule="evenodd" d="M427.718 134.427C427.727 133.677 427.736 132.927 427.745 132.18C427.736 132.93 427.727 133.679 427.718 134.427Z" fill="#FEEDE1" fill-opacity="0.8"/>
<path fill-rule="evenodd" clip-rule="evenodd" d="M216.893 273.28C217.489 273.289 218.085 273.298 218.676 273.305C218.079 273.296 217.486 273.288 216.893 273.28Z" fill="#FEEDE1" fill-opacity="0.8"/>
<path fill-rule="evenodd" clip-rule="evenodd" d="M370.429 274.503C371.011 274.515 371.594 274.526 372.172 274.539C371.587 274.527 371.008 274.515 370.429 274.503Z" fill="#FEEDE1" fill-opacity="0.8"/>
<path fill-rule="evenodd" clip-rule="evenodd" d="M433.368 221.779C433.326 221.121 433.284 220.463 433.243 219.807C433.285 220.465 433.326 221.122 433.368 221.779Z" fill="#FEEDE1" fill-opacity="0.8"/>
<path fill-rule="evenodd" clip-rule="evenodd" d="M422.909 275.142C423.383 275.14 423.857 275.137 424.326 275.136C423.85 275.139 423.379 275.141 422.909 275.142Z" fill="#FEEDE1" fill-opacity="0.8"/>
<path fill-rule="evenodd" clip-rule="evenodd" d="M358.286 274.533C358.756 274.522 359.225 274.51 359.69 274.499C359.219 274.511 358.752 274.522 358.286 274.533Z" fill="#FEEDE1" fill-opacity="0.8"/>
<path fill-rule="evenodd" clip-rule="evenodd" d="M252.71 274.174C253.227 274.171 253.744 274.168 254.256 274.165C253.738 274.168 253.224 274.171 252.71 274.174Z" fill="#FEEDE1" fill-opacity="0.8"/>
<path fill-rule="evenodd" clip-rule="evenodd" d="M133.487 274.172C133.978 274.176 134.47 274.179 134.956 274.184C134.463 274.181 133.975 274.177 133.487 274.172Z" fill="#FEEDE1" fill-opacity="0.8"/>
<path fill-rule="evenodd" clip-rule="evenodd" d="M104.483 274.252C104.984 274.224 105.484 274.195 105.981 274.168C105.478 274.196 104.981 274.224 104.483 274.252Z" fill="#FEEDE1" fill-opacity="0.8"/>
<path fill-rule="evenodd" clip-rule="evenodd" d="M243.34 83.2815C242.595 83.2173 241.849 83.1531 241.103 83.0884C241.85 83.1408 242.64 82.699 243.34 83.2815Z" fill="#FEEDE1" fill-opacity="0.8"/>
<path fill-rule="evenodd" clip-rule="evenodd" d="M433.44 270.245C432.704 270.171 431.969 270.096 431.234 270.022C431.969 270.096 432.704 270.171 433.44 270.245Z" fill="#FEEDE1" fill-opacity="0.8"/>
<path fill-rule="evenodd" clip-rule="evenodd" d="M382.149 87.8091C382.1 88.4533 382.05 89.0981 382.001 89.7404C382.05 89.0952 382.1 88.4519 382.149 87.8091Z" fill="#FEEDE1" fill-opacity="0.8"/>
<path fill-rule="evenodd" clip-rule="evenodd" d="M427.903 114.67C427.953 114.059 428.003 113.449 428.053 112.84C428.003 113.452 427.952 114.061 427.903 114.67Z" fill="#FEEDE1" fill-opacity="0.8"/>
<path fill-rule="evenodd" clip-rule="evenodd" d="M381.857 97.8027C381.804 98.446 381.751 99.0889 381.698 99.7298C381.751 99.086 381.804 98.4442 381.857 97.8027Z" fill="#FEEDE1" fill-opacity="0.8"/>
<path fill-rule="evenodd" clip-rule="evenodd" d="M427.591 139.325C427.586 138.704 427.582 138.082 427.577 137.463C427.979 138.082 427.962 138.702 427.591 139.325Z" fill="#FEEDE1" fill-opacity="0.8"/>
<path fill-rule="evenodd" clip-rule="evenodd" d="M358.452 228.591C358.447 229.214 358.441 229.838 358.435 230.458C358.023 229.83 358.105 229.209 358.452 228.591Z" fill="#FEEDE1" fill-opacity="0.8"/>
<path fill-rule="evenodd" clip-rule="evenodd" d="M405.321 156.509C405.249 155.879 405.177 155.248 405.105 154.619C405.178 155.251 405.249 155.88 405.321 156.509Z" fill="#FEEDE1" fill-opacity="0.8"/>
<path fill-rule="evenodd" clip-rule="evenodd" d="M17.2316 98.6315C16.744 99.2757 16.08 98.8344 15.5004 98.9128C16.0781 98.8188 16.6548 98.7254 17.2316 98.6315Z" fill="#FEEDE1" fill-opacity="0.8"/>
<path fill-rule="evenodd" clip-rule="evenodd" d="M258.314 244.353C257.698 244.354 257.083 244.355 256.467 244.356C257.083 244.355 257.698 244.354 258.314 244.353Z" fill="#FEEDE1" fill-opacity="0.8"/>
<path fill-rule="evenodd" clip-rule="evenodd" d="M356.72 101.278C356.777 101.802 356.835 102.326 356.892 102.848C356.835 102.323 356.777 101.801 356.72 101.278Z" fill="#FEEDE1" fill-opacity="0.8"/>
<path fill-rule="evenodd" clip-rule="evenodd" d="M52.3192 49.2473C51.7 49.2596 51.0808 49.2719 50.4615 49.2842C51.0742 48.9236 51.6915 48.8193 52.3192 49.2473Z" fill="#FEEDE1" fill-opacity="0.8"/>
<path fill-rule="evenodd" clip-rule="evenodd" d="M381.841 106.865C381.801 107.415 381.761 107.964 381.721 108.511C381.761 107.961 381.801 107.413 381.841 106.865Z" fill="#FEEDE1" fill-opacity="0.8"/>
<path fill-rule="evenodd" clip-rule="evenodd" d="M364.859 39.4284C364.907 38.9277 364.954 38.4269 365.002 37.929C364.954 38.4307 364.907 38.9295 364.859 39.4284Z" fill="#FEEDE1" fill-opacity="0.8"/>
<path fill-rule="evenodd" clip-rule="evenodd" d="M359.994 37.8595C359.946 38.4027 359.897 38.9465 359.849 39.4878C359.897 38.9436 359.946 38.4013 359.994 37.8595Z" fill="#FEEDE1" fill-opacity="0.8"/>
<path fill-rule="evenodd" clip-rule="evenodd" d="M91.0179 1.56824C90.3878 1.6447 89.7577 1.72116 89.1281 1.79715C89.7582 1.72069 90.3878 1.6447 91.0179 1.56824Z" fill="#FEEDE1" fill-opacity="0.8"/>
<path fill-rule="evenodd" clip-rule="evenodd" d="M45.5067 49.6796C44.8601 49.7456 44.2135 49.8117 43.5674 49.8778C44.214 49.8117 44.8606 49.7456 45.5067 49.6796Z" fill="#FEEDE1" fill-opacity="0.8"/>
<path fill-rule="evenodd" clip-rule="evenodd" d="M399.836 51.272C399.875 50.7665 399.914 50.2606 399.954 49.7579C399.914 50.2639 399.875 50.768 399.836 51.272Z" fill="#FEEDE1" fill-opacity="0.8"/>
<path fill-rule="evenodd" clip-rule="evenodd" d="M24.2842 134.697C24.6566 134.702 25.0285 134.708 25.3952 134.713C25.0214 134.708 24.6528 134.702 24.2842 134.697Z" fill="#FEEDE1" fill-opacity="0.8"/>
<path fill-rule="evenodd" clip-rule="evenodd" d="M360.013 197.085C359.976 197.645 359.939 198.205 359.902 198.763C359.939 198.203 359.977 197.644 360.013 197.085Z" fill="#FEEDE1" fill-opacity="0.8"/>
<path fill-rule="evenodd" clip-rule="evenodd" d="M398 88.1523C397.985 87.6128 397.97 87.0738 397.955 86.5358C397.971 87.0757 397.985 87.6138 398 88.1523Z" fill="#FEEDE1" fill-opacity="0.8"/>
<path fill-rule="evenodd" clip-rule="evenodd" d="M106.878 0.29181C106.304 0.29181 105.729 0.292282 105.156 0.292282C105.73 -0.10229 106.304 -0.0923785 106.878 0.29181Z" fill="#FEEDE1" fill-opacity="0.8"/>
<path fill-rule="evenodd" clip-rule="evenodd" d="M260.229 127.264C259.6 127.28 258.97 127.296 258.342 127.313C258.96 126.875 259.59 126.865 260.229 127.264Z" fill="#FEEDE1" fill-opacity="0.8"/>
<path fill-rule="evenodd" clip-rule="evenodd" d="M315.209 273.258C315.582 273.266 315.955 273.274 316.324 273.283C315.949 273.276 315.579 273.267 315.209 273.258Z" fill="#FEEDE1" fill-opacity="0.8"/>
<path fill-rule="evenodd" clip-rule="evenodd" d="M329.254 273.914C329.626 273.9 329.999 273.887 330.366 273.875C329.992 273.888 329.623 273.901 329.254 273.914Z" fill="#FEEDE1" fill-opacity="0.8"/>
<path fill-rule="evenodd" clip-rule="evenodd" d="M109.457 274.173C109.846 274.183 110.234 274.193 110.617 274.202C110.227 274.192 109.842 274.183 109.457 274.173Z" fill="#FEEDE1" fill-opacity="0.8"/>
<path fill-rule="evenodd" clip-rule="evenodd" d="M433.047 215.537C432.992 215.003 432.936 214.47 432.881 213.939C432.936 214.473 432.992 215.005 433.047 215.537Z" fill="#FEEDE1" fill-opacity="0.8"/>
<path fill-rule="evenodd" clip-rule="evenodd" d="M382.317 125.626C382.362 126.135 382.405 126.643 382.449 127.148C382.405 126.639 382.361 126.133 382.317 125.626Z" fill="#FEEDE1" fill-opacity="0.8"/>
<path fill-rule="evenodd" clip-rule="evenodd" d="M401.839 116.899C401.779 116.36 401.718 115.821 401.658 115.284C401.719 115.823 401.779 116.361 401.839 116.899Z" fill="#FEEDE1" fill-opacity="0.8"/>
<path fill-rule="evenodd" clip-rule="evenodd" d="M112.607 274.494C112.999 274.488 113.391 274.482 113.779 274.477C113.385 274.483 112.996 274.489 112.607 274.494Z" fill="#FEEDE1" fill-opacity="0.8"/>
<path fill-rule="evenodd" clip-rule="evenodd" d="M255.27 274.537C255.651 274.519 256.031 274.502 256.408 274.485C256.026 274.503 255.648 274.52 255.27 274.537Z" fill="#FEEDE1" fill-opacity="0.8"/>
<path fill-rule="evenodd" clip-rule="evenodd" d="M398.653 77.5413C398.636 76.9953 398.619 76.4492 398.602 75.9041C398.619 76.4506 398.636 76.9957 398.653 77.5413Z" fill="#FEEDE1" fill-opacity="0.8"/>
<path fill-rule="evenodd" clip-rule="evenodd" d="M75.4611 274.851C75.8434 274.848 76.2253 274.845 76.6024 274.843C76.2182 274.846 75.8401 274.849 75.4611 274.851Z" fill="#FEEDE1" fill-opacity="0.8"/>
<path fill-rule="evenodd" clip-rule="evenodd" d="M398.493 274.845C398.885 274.849 399.278 274.853 399.666 274.858C399.271 274.854 398.882 274.85 398.493 274.845Z" fill="#FEEDE1" fill-opacity="0.8"/>
<path fill-rule="evenodd" clip-rule="evenodd" d="M406.976 274.799C407.355 274.825 407.734 274.853 408.109 274.879C407.728 274.852 407.352 274.825 406.976 274.799Z" fill="#FEEDE1" fill-opacity="0.8"/>
<path fill-rule="evenodd" clip-rule="evenodd" d="M410.404 274.792C410.79 274.803 411.176 274.815 411.557 274.824C411.17 274.812 410.787 274.802 410.404 274.792Z" fill="#FEEDE1" fill-opacity="0.8"/>
<path fill-rule="evenodd" clip-rule="evenodd" d="M427.996 119.064C427.97 118.527 427.945 117.989 427.92 117.453C427.946 117.992 427.97 118.528 427.996 119.064Z" fill="#FEEDE1" fill-opacity="0.8"/>
<path fill-rule="evenodd" clip-rule="evenodd" d="M168.724 267.752C169.898 267.691 171.074 267.629 172.249 267.568C171.074 267.629 169.898 267.69 168.724 267.752Z" fill="#FEEDE1" fill-opacity="0.8"/>
<path fill-rule="evenodd" clip-rule="evenodd" d="M97.8381 72.4491C98.858 72.5378 99.878 72.6266 100.897 72.7143C99.877 72.6261 98.8575 72.5374 97.8381 72.4491Z" fill="#FEEDE1" fill-opacity="0.8"/>
<path fill-rule="evenodd" clip-rule="evenodd" d="M385.813 116.792C385.845 117.765 385.878 118.739 385.909 119.709C385.877 118.735 385.845 117.764 385.813 116.792Z" fill="#FEEDE1" fill-opacity="0.8"/>
<path fill-rule="evenodd" clip-rule="evenodd" d="M406.862 269.416C407.926 269.481 408.991 269.545 410.055 269.609C408.984 269.658 407.897 269.963 406.862 269.416Z" fill="#FEEDE1" fill-opacity="0.8"/>
<path fill-rule="evenodd" clip-rule="evenodd" d="M400.562 154.298C400.57 153.37 400.578 152.441 400.585 151.515C400.577 152.444 400.57 153.371 400.562 154.298Z" fill="#FEEDE1" fill-opacity="0.8"/>
<path fill-rule="evenodd" clip-rule="evenodd" d="M397.837 183.466C398.771 183.479 399.706 183.491 400.64 183.504C399.705 183.491 398.771 183.479 397.837 183.466Z" fill="#FEEDE1" fill-opacity="0.8"/>
<path fill-rule="evenodd" clip-rule="evenodd" d="M162.658 167.145C162.634 167.853 162.611 168.56 162.589 169.264C162.612 168.556 162.635 167.851 162.658 167.145Z" fill="#FEEDE1" fill-opacity="0.8"/>
<path fill-rule="evenodd" clip-rule="evenodd" d="M413.384 137.187C413.346 137.891 413.308 138.594 413.271 139.295C413.309 138.59 413.347 137.888 413.384 137.187Z" fill="#FEEDE1" fill-opacity="0.8"/>
<path fill-rule="evenodd" clip-rule="evenodd" d="M393.453 266.283C394.133 266.237 394.812 266.191 395.49 266.147C394.979 266.557 394.465 266.591 393.453 266.283Z" fill="#FEEDE1" fill-opacity="0.8"/>
<path fill-rule="evenodd" clip-rule="evenodd" d="M388.905 174.248C388.952 175.007 388.999 175.766 389.045 176.523C388.998 175.763 388.952 175.006 388.905 174.248Z" fill="#FEEDE1" fill-opacity="0.8"/>
<path fill-rule="evenodd" clip-rule="evenodd" d="M134.787 54.4589C134.794 53.7259 134.801 52.993 134.809 52.2628C134.802 52.9967 134.795 53.7278 134.787 54.4589Z" fill="#FEEDE1" fill-opacity="0.8"/>
<path fill-rule="evenodd" clip-rule="evenodd" d="M389.728 183.619L392.261 183.564C391.425 183.968 390.581 183.982 389.728 183.619Z" fill="#FEEDE1" fill-opacity="0.8"/>
<path fill-rule="evenodd" clip-rule="evenodd" d="M413.098 189.029C412.501 189.034 411.904 189.039 411.311 189.045C411.909 189.04 412.504 189.034 413.098 189.029Z" fill="#FEEDE1" fill-opacity="0.8"/>
<path fill-rule="evenodd" clip-rule="evenodd" d="M194.351 266.574C195.178 266.585 196.005 266.596 196.831 266.607C195.998 267.024 195.171 267.083 194.351 266.574Z" fill="#FEEDE1" fill-opacity="0.8"/>
<path fill-rule="evenodd" clip-rule="evenodd" d="M38.584 269.011C39.4232 268.936 40.2628 268.861 41.102 268.786C40.2628 268.861 39.4232 268.936 38.584 269.011Z" fill="#FEEDE1" fill-opacity="0.8"/>
<path fill-rule="evenodd" clip-rule="evenodd" d="M386.105 123.043C386.146 123.804 386.187 124.566 386.228 125.326C386.187 124.563 386.146 123.803 386.105 123.043Z" fill="#FEEDE1" fill-opacity="0.8"/>
<path fill-rule="evenodd" clip-rule="evenodd" d="M118.237 74.2376C118.945 73.8888 119.658 73.8303 120.378 74.1998C119.664 74.2126 118.951 74.2253 118.237 74.2376Z" fill="#FEEDE1" fill-opacity="0.8"/>
<path fill-rule="evenodd" clip-rule="evenodd" d="M362.962 131.839C363.02 132.481 363.079 133.124 363.137 133.765C363.078 133.121 363.02 132.48 362.962 131.839Z" fill="#FEEDE1" fill-opacity="0.8"/>
<path fill-rule="evenodd" clip-rule="evenodd" d="M422.728 116.846C422.364 116.217 422.377 115.592 422.746 114.972C422.74 115.597 422.734 116.222 422.728 116.846Z" fill="#FEEDE1" fill-opacity="0.8"/>
<path fill-rule="evenodd" clip-rule="evenodd" d="M386.22 95.0214C386.22 95.6571 386.22 96.2933 386.22 96.9272C386.22 96.29 386.22 95.6557 386.22 95.0214Z" fill="#FEEDE1" fill-opacity="0.8"/>
<path fill-rule="evenodd" clip-rule="evenodd" d="M411.581 183.162C412.309 182.939 413.038 182.623 413.763 183.17C413.035 183.168 412.309 183.165 411.581 183.162Z" fill="#FEEDE1" fill-opacity="0.8"/>
<path fill-rule="evenodd" clip-rule="evenodd" d="M176.252 267.464C176.985 267.396 177.718 267.328 178.45 267.259C177.718 267.328 176.985 267.396 176.252 267.464Z" fill="#FEEDE1" fill-opacity="0.8"/>
<path fill-rule="evenodd" clip-rule="evenodd" d="M75.7951 267.466C76.4663 267.171 77.136 267.016 77.7972 267.488C77.1294 267.48 76.4625 267.473 75.7951 267.466Z" fill="#FEEDE1" fill-opacity="0.8"/>
<path fill-rule="evenodd" clip-rule="evenodd" d="M213.075 266.519C213.793 266.205 214.509 266.033 215.217 266.541C214.503 266.533 213.789 266.526 213.075 266.519Z" fill="#FEEDE1" fill-opacity="0.8"/>
<path fill-rule="evenodd" clip-rule="evenodd" d="M53.3162 173.669C53.37 174.317 53.4243 174.965 53.4776 175.611C53.4234 174.963 53.3696 174.316 53.3162 173.669Z" fill="#FEEDE1" fill-opacity="0.8"/>
<path fill-rule="evenodd" clip-rule="evenodd" d="M219.936 136.343C220.642 136.087 221.346 135.953 222.039 136.382C221.337 136.368 220.637 136.356 219.936 136.343Z" fill="#FEEDE1" fill-opacity="0.8"/>
<path fill-rule="evenodd" clip-rule="evenodd" d="M386.093 155.633C386.132 156.267 386.171 156.9 386.21 157.532C386.171 156.898 386.132 156.266 386.093 155.633Z" fill="#FEEDE1" fill-opacity="0.8"/>
<path fill-rule="evenodd" clip-rule="evenodd" d="M52.8603 98.4806C52.8018 98.9908 52.7432 99.5015 52.6852 100.009C52.7437 99.4977 52.8018 98.9894 52.8603 98.4806Z" fill="#FEEDE1" fill-opacity="0.8"/>
<path fill-rule="evenodd" clip-rule="evenodd" d="M11.9329 246.441C11.8966 246.938 11.8607 247.434 11.8248 247.928C11.8621 247.431 11.8975 246.936 11.9329 246.441Z" fill="#FEEDE1" fill-opacity="0.8"/>
<path fill-rule="evenodd" clip-rule="evenodd" d="M400.876 158.985C400.836 158.472 400.796 157.958 400.757 157.447C400.796 157.961 400.836 158.474 400.876 158.985Z" fill="#FEEDE1" fill-opacity="0.8"/>
<path fill-rule="evenodd" clip-rule="evenodd" d="M349.453 265.56C350.082 265.564 350.711 265.569 351.34 265.573C350.711 265.569 350.082 265.564 349.453 265.56Z" fill="#FEEDE1" fill-opacity="0.8"/>
<path fill-rule="evenodd" clip-rule="evenodd" d="M162.421 171.515C162.538 171.888 162.656 172.263 162.773 172.637C161.988 172.827 161.871 172.452 162.421 171.515Z" fill="#FEEDE1" fill-opacity="0.8"/>
<path fill-rule="evenodd" clip-rule="evenodd" d="M209.595 135.499C210.234 135.496 210.873 135.493 211.512 135.491C210.874 135.794 210.235 136.002 209.595 135.499Z" fill="#FEEDE1" fill-opacity="0.8"/>
<path fill-rule="evenodd" clip-rule="evenodd" d="M53.6748 176.737C53.6965 177.303 53.7182 177.87 53.739 178.435C53.7168 177.868 53.6956 177.302 53.6748 176.737Z" fill="#FEEDE1" fill-opacity="0.8"/>
<path fill-rule="evenodd" clip-rule="evenodd" d="M60.4354 268.085C61.0522 268.085 61.6686 268.084 62.2855 268.084C61.6682 268.084 61.0522 268.085 60.4354 268.085Z" fill="#FEEDE1" fill-opacity="0.8"/>
<path fill-rule="evenodd" clip-rule="evenodd" d="M364.514 182.709C364.537 183.231 364.56 183.752 364.583 184.271C364.561 183.748 364.537 183.229 364.514 182.709Z" fill="#FEEDE1" fill-opacity="0.8"/>
<path fill-rule="evenodd" clip-rule="evenodd" d="M47.3397 268.721C47.9462 268.319 48.5541 268.354 49.1629 268.715C48.555 268.717 47.9471 268.719 47.3397 268.721Z" fill="#FEEDE1" fill-opacity="0.8"/>
<path fill-rule="evenodd" clip-rule="evenodd" d="M63.3094 91.1947C63.342 91.7271 63.375 92.2599 63.409 92.789C63.3764 92.2557 63.3429 91.7252 63.3094 91.1947Z" fill="#FEEDE1" fill-opacity="0.8"/>
<path fill-rule="evenodd" clip-rule="evenodd" d="M44.1844 268.776C44.8149 268.778 45.4455 268.781 46.0756 268.784C45.4431 269.214 44.8131 269.235 44.1844 268.776Z" fill="#FEEDE1" fill-opacity="0.8"/>
<path fill-rule="evenodd" clip-rule="evenodd" d="M393.347 82.8374C393.353 82.2966 393.357 81.7561 393.362 81.2167C393.357 81.758 393.352 82.2975 393.347 82.8374Z" fill="#FEEDE1" fill-opacity="0.8"/>
<path fill-rule="evenodd" clip-rule="evenodd" d="M103.86 73.379C104.464 73.4578 105.067 73.5367 105.669 73.615C105.066 73.5362 104.463 73.4578 103.86 73.379Z" fill="#FEEDE1" fill-opacity="0.8"/>
<path fill-rule="evenodd" clip-rule="evenodd" d="M50.632 120.057C50.64 120.562 50.6481 121.067 50.6575 121.57C50.6495 121.064 50.641 120.56 50.632 120.057Z" fill="#FEEDE1" fill-opacity="0.8"/>
<path fill-rule="evenodd" clip-rule="evenodd" d="M397.407 119.984C397.374 119.47 397.341 118.955 397.308 118.443C397.341 118.959 397.374 119.472 397.407 119.984Z" fill="#FEEDE1" fill-opacity="0.8"/>
<path fill-rule="evenodd" clip-rule="evenodd" d="M256.725 268.173C257.469 268.24 258.214 268.308 258.957 268.375C258.213 268.307 257.469 268.24 256.725 268.173Z" fill="#FEEDE1" fill-opacity="0.8"/>
<path fill-rule="evenodd" clip-rule="evenodd" d="M254.238 248.905C253.836 248.912 253.434 248.918 253.035 248.926C253.439 248.921 253.839 248.913 254.238 248.905Z" fill="#FEEDE1" fill-opacity="0.8"/>
<path fill-rule="evenodd" clip-rule="evenodd" d="M254.271 267.878C254.895 267.94 255.52 268.001 256.144 268.063C255.52 268.001 254.895 267.94 254.271 267.878Z" fill="#FEEDE1" fill-opacity="0.8"/>
<path fill-rule="evenodd" clip-rule="evenodd" d="M141.932 225.84C142.744 230.429 135.612 234.918 135.046 228.394C134.84 226.008 136.435 224.33 138.221 222.872C140.757 220.802 142.173 222.784 141.932 225.84Z" fill="#FEEDE1" fill-opacity="0.8"/>
<path fill-rule="evenodd" clip-rule="evenodd" d="M63.3114 169.846C64.9917 170.533 77.829 174.716 71.1609 176.82C69.3957 177.377 66.7276 177.46 65.1975 176.479C63.3568 175.298 61.5 171.814 63.3114 169.846Z" fill="#FEEDE1" fill-opacity="0.8"/>
<path fill-rule="evenodd" clip-rule="evenodd" d="M66.473 107.694C70.8303 107.188 74.8449 114.345 69.4729 114.112C65.5626 113.943 60.3038 107.694 66.473 107.694Z" fill="#FEEDE1" fill-opacity="0.8"/>
<path fill-rule="evenodd" clip-rule="evenodd" d="M82.0601 125.241C85.6985 128.416 78.9545 135.52 76.2769 132.771C74.9096 131.366 76.1707 128.34 77.2992 127.165C78.4575 125.959 80.5181 125.732 82.0601 125.241Z" fill="#FEEDE1" fill-opacity="0.8"/>
<path fill-rule="evenodd" clip-rule="evenodd" d="M92.8912 207.539C90.7432 207.88 81.2971 210.967 83.2671 205.361C84.0185 203.223 86.1141 203.857 88.0299 203.955C91.1175 204.113 92.8912 203.965 92.8912 207.539Z" fill="#FEEDE1" fill-opacity="0.8"/>
<path fill-rule="evenodd" clip-rule="evenodd" d="M86.6686 221.98C89.8842 223.701 85.1837 233.328 82.5185 231.28C78.8206 228.437 83.8783 222.845 86.6686 221.98Z" fill="#FEEDE1" fill-opacity="0.8"/>
<path fill-rule="evenodd" clip-rule="evenodd" d="M100.695 214.241C102.258 213.603 109.629 220.693 106.823 222.665C105.385 223.676 102.66 221.943 101.793 220.898C100.168 218.938 100.021 216.521 100.695 214.241Z" fill="#FEEDE1" fill-opacity="0.8"/>
<path fill-rule="evenodd" clip-rule="evenodd" d="M58.1661 156.29C59.7642 156.552 62.5234 156.635 62.6268 158.881C62.7174 160.855 60.2428 161.494 58.5007 161.649C56.6931 161.809 54.3001 161.299 54.2657 159.027C54.2294 156.575 58.1095 156.722 58.1661 156.29Z" fill="#FEEDE1" fill-opacity="0.8"/>
<path fill-rule="evenodd" clip-rule="evenodd" d="M97.5761 254.013C99.278 255.046 107.217 258.767 103.814 261.454C102.54 262.46 98.68 260.383 97.8111 259.327C96.7742 258.067 95.7608 255.114 97.5761 254.013Z" fill="#FEEDE1" fill-opacity="0.8"/>
<path fill-rule="evenodd" clip-rule="evenodd" d="M119.645 227.019C119.399 222.913 126.327 221.279 124.89 227.107C124.485 228.75 124.094 231.245 122.062 231.34C119.66 231.453 119.574 228.612 119.645 227.019Z" fill="#FEEDE1" fill-opacity="0.8"/>
<path fill-rule="evenodd" clip-rule="evenodd" d="M98.2451 155.613C98.2932 158.728 92.3246 161.475 92.2783 156.538C92.2373 152.126 98.4678 150.834 98.2451 155.613Z" fill="#FEEDE1" fill-opacity="0.8"/>
<path fill-rule="evenodd" clip-rule="evenodd" d="M94.3027 139.39C95.7734 139.864 97.7278 140.108 97.8572 141.976C97.9945 143.954 96.1576 144.834 94.5047 144.723C93.1492 144.632 91.1433 143.629 90.8969 142.158C90.5359 139.999 92.6428 139.858 94.3027 139.39Z" fill="#FEEDE1" fill-opacity="0.8"/>
<path fill-rule="evenodd" clip-rule="evenodd" d="M66.9552 196.42C66.9302 193.85 72.0813 190.761 73.03 193.743C73.3335 194.698 70.9056 198.977 70.0981 199.298C67.9614 200.146 67.6631 198.169 66.9552 196.42Z" fill="#FEEDE1" fill-opacity="0.8"/>
<path fill-rule="evenodd" clip-rule="evenodd" d="M109.168 239.202C107.427 240.76 102.206 245.136 102.596 239.261C102.845 235.508 109.627 235.704 109.168 239.202Z" fill="#FEEDE1" fill-opacity="0.8"/>
<path fill-rule="evenodd" clip-rule="evenodd" d="M194.237 255.993C194.808 253.523 202.977 257.808 200.25 260.929C199.336 261.976 196.943 261.028 196.023 260.408C194.203 259.179 194.163 258.045 194.237 255.993Z" fill="#FEEDE1" fill-opacity="0.8"/>
<path fill-rule="evenodd" clip-rule="evenodd" d="M148.721 203.114C149.04 202.013 149.394 200.066 150.445 199.363C152.346 198.091 154.001 200.009 154.001 202.031C154.002 205.802 149.709 206.991 148.721 203.114Z" fill="#FEEDE1" fill-opacity="0.8"/>
<path fill-rule="evenodd" clip-rule="evenodd" d="M128.476 247.205C130.597 247.691 135.32 252.847 132.581 254.95C129.945 256.975 126.439 248.745 128.476 247.205Z" fill="#FEEDE1" fill-opacity="0.8"/>
<path fill-rule="evenodd" clip-rule="evenodd" d="M130.495 208.179C133.222 208.396 136.97 212.812 132.731 213.514C129.416 214.064 125.56 209.26 130.495 208.179Z" fill="#FEEDE1" fill-opacity="0.8"/>
<path fill-rule="evenodd" clip-rule="evenodd" d="M155.184 228.501C155.868 226.197 162.632 228.665 162.252 231.202C162.05 232.55 159.284 232.867 157.831 232.51C155.691 231.985 155.135 230.582 155.184 228.501Z" fill="#FEEDE1" fill-opacity="0.8"/>
<path fill-rule="evenodd" clip-rule="evenodd" d="M75.4599 99.837C75.509 96.8589 81.2317 95.6449 81.6508 98.6462C82.0298 101.358 75.3882 104.243 75.4599 99.837Z" fill="#FEEDE1" fill-opacity="0.8"/>
<path fill-rule="evenodd" clip-rule="evenodd" d="M153.294 259.188C153.706 257.69 153.884 255.888 155.754 255.691C157.896 255.465 157.833 257.107 157.581 258.809C156.896 263.44 154.28 263.671 153.294 259.188Z" fill="#FEEDE1" fill-opacity="0.8"/>
<path fill-rule="evenodd" clip-rule="evenodd" d="M62.9206 135.271C59.9372 135.944 54.4732 130.198 57.8129 128.965C60.1661 128.095 62.9206 133.537 62.9206 135.271Z" fill="#FEEDE1" fill-opacity="0.8"/>
<path fill-rule="evenodd" clip-rule="evenodd" d="M100.972 179.903C99.4541 180.618 99.1044 181.051 97.9382 179.878C96.9225 178.856 96.9673 176.009 97.839 174.946C101.178 170.876 101.099 178.255 100.972 179.903Z" fill="#FEEDE1" fill-opacity="0.8"/>
<path fill-rule="evenodd" clip-rule="evenodd" d="M113.361 171.647C114.944 171.849 119.649 176.312 117.199 178.086C114.197 180.259 112.498 173.451 113.361 171.647Z" fill="#FEEDE1" fill-opacity="0.8"/>
<path fill-rule="evenodd" clip-rule="evenodd" d="M147.62 172.823C146.469 177.255 143.596 174.272 143.759 170.919C144.02 165.547 146.997 170.225 147.62 172.823Z" fill="#FEEDE1" fill-opacity="0.8"/>
<path fill-rule="evenodd" clip-rule="evenodd" d="M165.089 244.009C167.036 244.815 169.68 252.259 166.898 252.658C163.774 253.106 164.814 245.559 165.089 244.009Z" fill="#FEEDE1" fill-opacity="0.8"/>
<path fill-rule="evenodd" clip-rule="evenodd" d="M140.771 239.827C142.999 239.075 143.816 243.775 142.521 244.648C139.671 246.569 140.272 240.936 140.771 239.827Z" fill="#FEEDE1" fill-opacity="0.8"/>
<path fill-rule="evenodd" clip-rule="evenodd" d="M119.645 227.019C119.616 227.643 119.589 228.267 119.559 228.887C119.587 228.262 119.616 227.641 119.645 227.019Z" fill="#FEEDE1" fill-opacity="0.8"/>
<path fill-rule="evenodd" clip-rule="evenodd" d="M194.237 255.993C194.213 256.633 194.19 257.273 194.166 257.909C194.188 257.268 194.212 256.631 194.237 255.993Z" fill="#FEEDE1" fill-opacity="0.8"/>
<path fill-rule="evenodd" clip-rule="evenodd" d="M155.184 228.501C155.172 229.043 155.159 229.586 155.145 230.126C155.157 229.581 155.171 229.041 155.184 228.501Z" fill="#FEEDE1" fill-opacity="0.8"/>
<path fill-rule="evenodd" clip-rule="evenodd" d="M401.648 219.16C406.268 219.012 411.421 217.273 415.961 217.826C417.211 217.978 420.087 218.293 418.085 220.147C417.128 221.033 412.543 220.575 411.156 220.869C402.674 222.665 393.045 223.823 384.348 223.673C380.277 223.603 376.176 223.277 372.106 223.062C368.04 222.847 367.64 221.194 372.216 220.669C376.968 220.123 381.844 220.326 386.62 220.32C391.641 220.313 396.637 219.495 401.648 219.16Z" fill="#FEEDE1" fill-opacity="0.8"/>
<path fill-rule="evenodd" clip-rule="evenodd" d="M411.79 208.03C411.346 209.296 410.955 212.201 409.251 212.392C406.865 212.658 406.47 208.561 406.558 207.063C406.665 205.254 407.315 202.249 409.563 202.876C411.462 203.405 411.652 206.582 411.79 208.03Z" fill="#FEEDE1" fill-opacity="0.8"/>
<path fill-rule="evenodd" clip-rule="evenodd" d="M397.343 207.103C397.692 205.747 397.863 202.691 399.78 202.587C401.923 202.471 402.535 205.656 402.521 207.181C402.507 208.63 401.971 211.366 400.265 211.701C397.952 212.154 397.745 208.652 397.343 207.103Z" fill="#FEEDE1" fill-opacity="0.8"/>
<path fill-rule="evenodd" clip-rule="evenodd" d="M373.284 209.534C372.589 211.163 372.13 213.408 369.982 212.297C368.32 211.438 368.089 207.973 368.402 206.387C368.727 204.743 369.414 202.858 371.303 203.597C373.481 204.45 373.261 207.74 373.284 209.534Z" fill="#FEEDE1" fill-opacity="0.8"/>
<path fill-rule="evenodd" clip-rule="evenodd" d="M391.504 208.03C389.457 214.238 385.721 210.037 387.14 205.403C388.623 200.558 391.316 205.263 391.504 208.03Z" fill="#FEEDE1" fill-opacity="0.8"/>
<path fill-rule="evenodd" clip-rule="evenodd" d="M381.527 208.337C380.958 209.43 380.353 211.788 378.82 211.54C376.94 211.235 376.88 207.618 377.086 206.271C377.266 205.092 377.796 203.127 379.369 203.153C381.642 203.189 381.489 206.922 381.527 208.337Z" fill="#FEEDE1" fill-opacity="0.8"/>
<path fill-rule="evenodd" clip-rule="evenodd" d="M422.377 209.529C420.853 212.949 418.756 210.003 419.427 207.573C420.422 203.971 422.291 207.163 422.377 209.529Z" fill="#FEEDE1" fill-opacity="0.8"/>
<path fill-rule="evenodd" clip-rule="evenodd" d="M385.041 220.324C383.376 220.317 381.711 220.311 380.046 220.305C381.712 219.991 383.378 219.869 385.041 220.324Z" fill="#FEEDE1" fill-opacity="0.8"/>
<path fill-rule="evenodd" clip-rule="evenodd" d="M418.127 217.812C416.683 217.821 415.239 217.83 413.796 217.84C415.237 217.407 416.681 217.398 418.127 217.812Z" fill="#FEEDE1" fill-opacity="0.8"/>
<path fill-rule="evenodd" clip-rule="evenodd" d="M401.648 219.16C400.492 219.237 399.337 219.314 398.181 219.392C399.337 219.314 400.493 219.237 401.648 219.16Z" fill="#FEEDE1" fill-opacity="0.8"/>
<path fill-rule="evenodd" clip-rule="evenodd" d="M373.284 209.534C373.273 208.704 373.262 207.875 373.252 207.047C373.679 207.872 373.65 208.701 373.284 209.534Z" fill="#FEEDE1" fill-opacity="0.8"/>
<path fill-rule="evenodd" clip-rule="evenodd" d="M382.344 223.656C383.014 223.662 383.684 223.668 384.349 223.674C383.676 223.668 383.01 223.662 382.344 223.656Z" fill="#FEEDE1" fill-opacity="0.8"/>
<path fill-rule="evenodd" clip-rule="evenodd" d="M371.09 223.062C371.769 223.062 372.448 223.062 373.122 223.062C372.44 223.062 371.765 223.062 371.09 223.062Z" fill="#FEEDE1" fill-opacity="0.8"/>
<path fill-rule="evenodd" clip-rule="evenodd" d="M376.655 220.396C375.711 220.473 374.767 220.551 373.823 220.628C374.767 220.551 375.711 220.473 376.655 220.396Z" fill="#FEEDE1" fill-opacity="0.8"/>
<path fill-rule="evenodd" clip-rule="evenodd" d="M389.416 220.313C388.484 220.315 387.552 220.317 386.62 220.319C387.552 219.926 388.484 219.915 389.416 220.313Z" fill="#FEEDE1" fill-opacity="0.8"/>
<path fill-rule="evenodd" clip-rule="evenodd" d="M381.525 208.337C381.502 207.472 381.479 206.607 381.458 205.744C381.481 206.609 381.503 207.473 381.525 208.337Z" fill="#FEEDE1" fill-opacity="0.8"/>
<path fill-rule="evenodd" clip-rule="evenodd" d="M368.404 206.387C368.398 207.23 368.393 208.073 368.387 208.914C368.392 208.069 368.397 207.228 368.404 206.387Z" fill="#FEEDE1" fill-opacity="0.8"/>
<path fill-rule="evenodd" clip-rule="evenodd" d="M406.945 218.846C406.121 218.921 405.298 218.995 404.474 219.069C405.298 218.995 406.122 218.921 406.945 218.846Z" fill="#FEEDE1" fill-opacity="0.8"/>
<path fill-rule="evenodd" clip-rule="evenodd" d="M422.377 209.529C422.35 208.792 422.323 208.055 422.297 207.319C422.324 208.056 422.35 208.792 422.377 209.529Z" fill="#FEEDE1" fill-opacity="0.8"/>
<path fill-rule="evenodd" clip-rule="evenodd" d="M387.323 223.68C387.897 223.669 388.47 223.659 389.038 223.649C388.463 223.66 387.893 223.67 387.323 223.68Z" fill="#FEEDE1" fill-opacity="0.8"/>
<path fill-rule="evenodd" clip-rule="evenodd" d="M411.79 208.03C411.74 207.5 411.689 206.97 411.639 206.442C411.69 206.973 411.74 207.501 411.79 208.03Z" fill="#FEEDE1" fill-opacity="0.8"/>
<path fill-rule="evenodd" clip-rule="evenodd" d="M391.504 208.03C391.467 207.486 391.43 206.942 391.393 206.399C391.43 206.944 391.467 207.487 391.504 208.03Z" fill="#FEEDE1" fill-opacity="0.8"/>
<path fill-rule="evenodd" clip-rule="evenodd" d="M95.7461 48.2514C93.4906 47.6596 93.0677 44.4898 93.4301 42.5429C93.8412 41.6046 94.2523 40.6668 94.6634 39.7285C94.5025 39.3816 94.342 39.0347 94.1815 38.6878C94.3878 36.7555 93.8606 35.9158 96.0812 36.6984C100.206 38.153 100.866 48.1023 95.7461 48.2514Z" fill="#FEEDE1" fill-opacity="0.8"/>
<path fill-rule="evenodd" clip-rule="evenodd" d="M129.135 42.1229C130.993 41.9766 134.368 44.1406 132.519 46.2343C131.373 47.5312 127.596 46.9177 126.056 47.1886C124.013 47.5478 121.882 48.0391 122.987 44.9788C123.855 42.5755 126.955 42.0601 129.135 42.1229Z" fill="#FEEDE1" fill-opacity="0.8"/>
<path fill-rule="evenodd" clip-rule="evenodd" d="M127.179 56.5176C125.291 55.004 126.134 48.1098 129.006 49.3502C131.961 50.6268 128.753 55.5227 127.179 56.5176Z" fill="#FEEDE1" fill-opacity="0.8"/>
<path fill-rule="evenodd" clip-rule="evenodd" d="M93.4318 42.5428C93.4318 43.2683 93.4313 43.9942 93.4299 44.7163C93.0362 43.9895 93.0485 43.2659 93.4318 42.5428Z" fill="#FEEDE1" fill-opacity="0.8"/>
<path fill-rule="evenodd" clip-rule="evenodd" d="M95.7463 48.2513C96.1309 48.2405 96.5161 48.2291 96.896 48.2192C96.5095 48.2315 96.1281 48.2414 95.7463 48.2513Z" fill="#FEEDE1" fill-opacity="0.8"/>
<path fill-rule="evenodd" clip-rule="evenodd" d="M328.801 246.796C328.624 249.932 325.257 247.614 325.496 245.516C325.929 241.709 328.082 245.471 328.801 246.796Z" fill="#FEEDE1" fill-opacity="0.8"/>
</svg>
